<svg id="Layer_1" data-name="Layer 1" xmlns="http://www.w3.org/2000/svg" viewBox="0 0 23 36"><defs><style>.cls-1{fill:#fff;}.cls-2{fill:none;}.cls-3{fill:#575756;}.cls-4{fill:#6f6f6e;}.cls-5{fill:#a8a8a8;}.cls-6{fill:#040707;}</style></defs><title>button</title><rect class="cls-1" x="-109.51" y="-1.84" width="133.28" height="38.48"/><polygon class="cls-2" points="15.68 13.52 15.69 13.52 13.53 12.19 15.68 13.52"/><polygon class="cls-3" points="13.53 12.19 15.69 13.52 21 11.89 19 10.63 13.53 12.19"/><polygon class="cls-4" points="18.88 33.4 -0.05 33.43 -0.05 35.58 20.76 35.47 18.88 33.4"/><polyline class="cls-5" points="-0.05 33.43 18.88 33.4 18.32 15.15 15.69 13.52 15.68 13.52 13.53 12.19 19 10.63 19.82 0.42 -0.05 0.49"/><polygon class="cls-4" points="20.76 35.47 20.05 16.93 18.32 15.15 18.88 33.4 20.76 35.47"/><polygon class="cls-4" points="21 11.89 21.33 1.72 19.82 0.42 19 10.63 21 11.89"/><polygon class="cls-6" points="3.52 8.27 3.52 25.57 12.09 16.92 3.52 8.27"/></svg>