<svg id="Layer_1" data-name="Layer 1" xmlns="http://www.w3.org/2000/svg" viewBox="0 0 86 36"><defs><style>.cls-1{fill:#fff;}.cls-2{fill:#575756;}.cls-3{fill:#6f6f6e;}.cls-4{fill:#a8a8a8;}</style></defs><title>button</title><rect class="cls-1" x="-21.29" y="-1.84" width="133.28" height="38.48"/><polygon class="cls-2" points="57.15 33.45 58.69 35.4 60.41 33.53 60.29 30.86 57.15 33.45"/><polygon class="cls-3" points="-0.15 33.35 -0.15 35.49 58.69 35.4 57.15 33.45 -0.15 33.35"/><polygon class="cls-3" points="60.41 33.53 61.6 35.67 86.04 35.49 86.04 33.35 60.41 33.53"/><polygon class="cls-4" points="33.72 0.33 32.81 3.35 30.84 0.37 -0.15 0.4 -0.15 32.75 -0.15 33.35 57.15 33.45 60.29 30.86 60.41 33.53 86.04 33.35 86.06 32.78 86.04 0.4 33.72 0.33"/></svg>