<svg id="Layer_1" data-name="Layer 1" xmlns="http://www.w3.org/2000/svg" viewBox="0 0 397.77 544.61"><defs><style>.cls-1{fill:#040707;}.cls-2{fill:#fff;}.cls-3{fill:#3c3c3b;}.cls-4{fill:none;}.cls-5{fill:#e21013;}</style></defs><title>Artboard 3</title><polygon class="cls-1" points="389.23 387.72 62.29 434.93 62.29 104.73 386.4 153.87 389.23 387.72"/><polygon class="cls-2" points="338.11 373.28 98.84 398.37 98.84 141.29 335.96 169.83 338.11 373.28"/><path class="cls-3" d="M367.61,290.31l-11.85.26c-4.84,5.84-5.58,15.09.08,21l11.77.23Z"/><ellipse class="cls-2" cx="367.69" cy="301.08" rx="8.2" ry="10.75"/><path class="cls-3" d="M371.61,232.66,354.5,233c-7,8.43-8.05,21.78.12,30.37l17,.34Z"/><path class="cls-1" d="M310.07,139.25C310.07,155,285.84,157,257,157s-52.17-12.73-52.17-28.43,29.59-23.88,59.36-22.27C292.51,107.79,310.07,123.54,310.07,139.25Z"/><path class="cls-4" d="M148.59,218.82c-.14-.27-.73-.46-1.63-.51l-16.39-.92a1.08,1.08,0,0,0-.42,0h0v42.89c6.17-2,12.24-4,17.4-7.39.48-.31.94-.63,1.4-1V220.54A3.71,3.71,0,0,0,148.59,218.82Z"/><path class="cls-4" d="M195.22,200.36c-.58-4-1.09-7.8-1.53-11.28-.21-1.68-.39-3.18-.55-4.48-.17,1.26-.38,2.71-.62,4.38-.47,3.26-1,6.87-1.52,11.05-.53,3.91-1.13,8.07-1.78,12.35q-.6,3.85-1.09,7.26a12.31,12.31,0,0,1,10,2.36l.15.1q-.59-4.26-1.27-9.23C196.38,208.53,195.78,204.32,195.22,200.36Z"/><path class="cls-4" d="M130.39,208.22l14.47.94c2.83.18,4.09-.8,4.09-3.18V174.74a4.19,4.19,0,0,0-1-2.65c-.6-.75-1.82-1.23-3.65-1.41l-13.74-1.39a1,1,0,0,0-.41,0,.38.38,0,0,0,0,.15V208a.51.51,0,0,0,0,.19A.72.72,0,0,0,130.39,208.22Z"/><path class="cls-4" d="M171.73,252.18a98,98,0,0,0-10.45,4.47v9.64L149,266.14v-1.68a57.6,57.6,0,0,0-5.43,5,32.47,32.47,0,0,0-4.85,6.82c-2,3.67-5.13,5.6-8.51,5.68v37.7c0-.07.07-.14.1-.22.65-1.45,1.5-3.39,2.52-5.77s2.08-4.87,3.41-8q1.88-4.44,3.83-9.09l10.66-25.4,12.6.09-1.3,3.15c.55-.75,1.11-1.5,1.7-2.24a42.41,42.41,0,0,1,6.28-6.75c.14-1,.37-2.52.61-4.45C170.85,258.66,171.23,255.78,171.73,252.18Z"/><path class="cls-4" d="M213.23,251.26l.08.67c.4,3.32.74,6.1,1,8.36l5-7.2a8.08,8.08,0,0,1,3.54-5.3V230.22q-4.56,1.46-9.25,2.76a13.29,13.29,0,0,0-2.46.92c.12.95.24,1.9.35,2.83C212.17,242.52,212.75,247.28,213.23,251.26Z"/><path class="cls-4" d="M183.47,252.38c-.15,1-.29,2-.44,3-.36,2.64-.65,4.74-.9,6.62-.13,1-.22,1.7-.28,2.17l4.62,2.6c-.69-3.93-1.5-7.86-2.18-11.8A9.27,9.27,0,0,0,183.47,252.38Z"/><path class="cls-4" d="M309.57,231.58c-.54.37-1.06.76-1.57,1.16.23,1.6.45,3.2.68,4.84Q309.15,234.39,309.57,231.58Z"/><path class="cls-4" d="M296.8,214.9l-.51,3.27.81-1.12C297,216.28,296.89,215.55,296.8,214.9Z"/><path class="cls-4" d="M209.8,266.86h-.41c0,.18,0,.36,0,.55Z"/><path class="cls-1" d="M126.33,261.56c1.28-.43,2.55-.84,3.82-1.25V217.42h0a1.08,1.08,0,0,1,.42,0l16.39.92c.9.05,1.49.24,1.63.51a3.71,3.71,0,0,1,.36,1.72V252c2.89-2.07,5.48-4.45,8.6-6.15,1.23-.67,2.48-1.34,3.73-2V220.64a7.39,7.39,0,0,0-2-4.74,6.82,6.82,0,0,0-2.4-1.84,5.91,5.91,0,0,0,2.44-1.92,8.3,8.3,0,0,0,1.92-5V174.92a12.57,12.57,0,0,0-3.16-8c-2.16-2.64-5.43-4.22-9.74-4.7L119.43,159l-2.34-.26v107l2.36,0A15,15,0,0,1,126.33,261.56Zm3.82-92.11a.38.38,0,0,1,0-.15,1,1,0,0,1,.41,0l13.74,1.39c1.83.18,3.05.66,3.65,1.41a4.19,4.19,0,0,1,1,2.65V206c0,2.38-1.26,3.36-4.09,3.18l-14.47-.94a.72.72,0,0,1-.21,0,.51.51,0,0,1,0-.19Z"/><path class="cls-1" d="M161.28,266.29v-9.64A68.88,68.88,0,0,0,149,264.46v1.68Z"/><path class="cls-1" d="M214.32,260.29c-.27-2.26-.61-5-1-8.36l-.08-.67c-.48-4-1.06-8.74-1.78-14.53-.11-.93-.23-1.88-.35-2.83-3,1.5-4.31,3.93-3.88,7.66q1.46,12.66,2.17,25.29h.41Z"/><path class="cls-1" d="M183,255.42c.15-1,.29-2.06.44-3-1.25-2.45-3.62-2.93-7.59-1.63-1.4.45-2.78.93-4.15,1.43-.5,3.6-.88,6.48-1.16,8.74-.24,1.93-.47,3.49-.61,4.45a10.48,10.48,0,0,1,7-2.72l2.16,0,2.71,1.52c.06-.47.15-1.15.28-2.17C182.38,260.16,182.67,258.06,183,255.42Z"/><path class="cls-1" d="M179.68,231.29a24.38,24.38,0,0,1,.52-4.92c1-3.62,4.19-6,7.93-6.73q.5-3.4,1.09-7.26c.65-4.28,1.25-8.44,1.78-12.35.55-4.18,1.05-7.79,1.52-11.05.24-1.67.45-3.12.62-4.38.16,1.3.34,2.8.55,4.48.44,3.48.95,7.27,1.53,11.28s1.16,8.17,1.75,12.51q.69,5,1.27,9.23a7.31,7.31,0,0,0,7.59,1.23c1.28-.42,2.54-.85,3.78-1.31-.09-.66-.17-1.31-.25-2-.76-6-1.45-11.44-2.1-16.75-.64-5.1-1.24-10.07-1.8-14.77-.51-4.3-1-7.91-1.34-10.74-.49-3.75-1.25-9.55-1.25-9.62L193,167.09,183.21,166s-2.13,16-2.67,20.28-1.22,9.36-2,14.84c-.8,5.73-1.58,11.46-2.32,17.05-.81,6.12-1.54,11.73-2.24,17.12-.14,1.07-.28,2.12-.41,3.14l.23-.08C178.08,237,179.48,234.79,179.68,231.29Z"/><path class="cls-1" d="M233.36,208.53v-37l-10.55-1.16v44.45c1.26-1.09,2.35-2.35,3.55-3.51A10.5,10.5,0,0,1,233.36,208.53Z"/><path class="cls-1" d="M245,266.4l.57.84h.54c4.37.05,7.69-.91,9.88-2.84s3.3-5,3.3-9.11V174.37l-10.12-1.1v81.4a5,5,0,0,1-1,3.21,3.37,3.37,0,0,1-2.91,1.16l-5.06-.1.3,1.76A46.85,46.85,0,0,1,245,266.4Z"/><path class="cls-1" d="M222.81,230.22v17.57l.13-.1A12.75,12.75,0,0,1,233.36,246V226.43c-1.44.61-2.89,1.19-4.37,1.72C227,228.88,224.9,229.56,222.81,230.22Z"/><path class="cls-1" d="M296.29,218.17l.51-3.27c.09.65.19,1.38.3,2.15.1-.13.19-.26.3-.39,2.32-3,4.56-6,7.08-8.79-.43-3-.87-6-1.32-8.94-.55-3.57-1-6.79-1.4-9.58-.43-3.14-.73-5.28-1-6.92-.31-2.15-.47-3.57-.47-3.57l-7.34-.8s-.2,1.37-.51,3.43c-.27,1.76-.6,4-1,6.79-.42,2.95-.88,6.15-1.38,9.51-.56,3.78-1.08,7.33-1.58,10.87-1,6.86-2.08,14.62-3.37,23.61q3.15-3.86,6.41-7.59A76.88,76.88,0,0,0,296.29,218.17Z"/><path class="cls-1" d="M275.36,176.13l-9.14-1,10.46,68.14c2.4-3.31,4.89-6.54,7.43-9.7Z"/><path class="cls-1" d="M309.57,231.58q-.42,2.8-.89,6c-.23-1.64-.45-3.24-.68-4.84a33,33,0,0,0-6.38,7.07l-.89,1.29L304.61,267l.1.92,8,.1.14-.9,5.91-40a14.14,14.14,0,0,1-3.25,1.53A23.85,23.85,0,0,0,309.57,231.58Z"/><path class="cls-1" d="M316.48,203.57a9.77,9.77,0,0,1,5.3,2.92l3.68-24.88-8.18-.89c-1.24,7.94-2.42,15.69-3.45,22.56A14.23,14.23,0,0,1,316.48,203.57Z"/><path class="cls-1" d="M288.68,267.75c.6-3.91,1.19-7.73,1.75-11.4q-3.68,5.58-7.23,11.33Z"/><path class="cls-1" d="M162,274.36l1.3-3.15-12.6-.09L140,296.52q-2,4.65-3.83,9.09c-1.33,3.14-2.44,5.76-3.41,8s-1.87,4.32-2.52,5.77c0,.08-.07.15-.1.22v-37.7a12,12,0,0,1-8.45-3.71c-2.53-2.45-3.87-5-4-7.31h-.6V377.8l13.07-1.19V348.83a1,1,0,0,1,.1-.53l0,0,4.24-10,15.89,35.9,0,.05.21.52,12.92-1.18c-3.73-8.55-7.78-17.81-10.76-24.7-1.24-2.86-2.53-5.8-3.84-8.74s-2.41-5.52-3.32-7.77-1.73-4.21-2.39-5.68a17.05,17.05,0,0,1-.92-2.27v-.12l-.06-.12a2.52,2.52,0,0,1,0-2c2.27-5.53,4.67-11.37,7.11-17.37,1.73-4.23,3.29-8,4.74-11.55.17-4.41.22-5.62,1-7.56A60.87,60.87,0,0,1,162,274.36Z"/><path class="cls-1" d="M279.34,274.08c-1.45,2.45-2.88,4.92-4.27,7.42-.44.79-.91,1.56-1.39,2.33v7.92l1.52,0,3.32-.05,4.78-.06v-8.31c0-3.93-1.06-6.83-3.15-8.62A9.53,9.53,0,0,0,279.34,274.08Z"/><path class="cls-1" d="M253.42,283.73a34.61,34.61,0,0,0,2.39-4.55c1.06-2.42,2.18-4.79,3.34-7.14a12.43,12.43,0,0,0-6.84,2.68c-2.23,1.93-3.36,5-3.36,9.19v1.81A4.49,4.49,0,0,0,253.42,283.73Z"/><path class="cls-1" d="M262.13,316.06c0,.5,0,1,0,1.5,1.89,1.73,3.71,3.52,5.41,5.34a34.85,34.85,0,0,1,4.46,5.81,11.51,11.51,0,0,1,1.69,5.93v16.78a5.44,5.44,0,0,1-1,3.24,3.53,3.53,0,0,1-2.77,1.41l-7,.58a3.73,3.73,0,0,1-3-.73,3.37,3.37,0,0,1-.95-2.54v-8.65l-4.9.34-3.79.27-1.31.09v8.74c0,4.07,1.13,7,3.37,8.63s5.43,2.24,9.6,1.87l9-.82c4.06-.37,7.16-1.59,9.25-3.65s3.14-5.13,3.14-9.14V334.45a22,22,0,0,0-1.79-9.1,29,29,0,0,0-4.52-7.1,50.05,50.05,0,0,0-5.92-5.82c-2.08-1.74-4.07-3.52-5.89-5.27-.71-.69-1.36-1.4-2-2.11A44.26,44.26,0,0,0,262.13,316.06Z"/><path class="cls-1" d="M288.67,276v3.79l14,0c.19,0,.28,0,.29.05a.24.24,0,0,1,0,.12v81l9-.81V279.94c0-.09,0-.14,0-.17h0l13.11,0v-7.41l-36.5-.25Z"/><path class="cls-2" d="M243.36,277.43a21.29,21.29,0,0,0,2.59,6.26,4.07,4.07,0,0,0,2.94,2l-3.19-18.26-.14-.21-4-.05C242.13,270.62,242.71,274,243.36,277.43Z"/><path class="cls-2" d="M219.27,253.09l-5,7.2c.05.43.1.84.14,1.23.34,2.85.65,5.13.67,5.4l-5.33-.06-.37.54q.31,5.66.51,11.31l10.88-15.95q-.76-3.37-1.45-6.76A8.25,8.25,0,0,1,219.27,253.09Z"/><path class="cls-2" d="M244.73,328.46c-1.93,10-3.27,25.4-12.18,34.77-5.86,6.16-25.85,16.37-25.85,16.37s-20.82-6.45-27.25-11.78c-12-9.93-13.08-27.93-16.46-37.44-.86-2.43-7.86-2.89-2.46-10.62,1.87-29.3,1.13-30,1.94-31.9,3-7.09,12.21-18.74,14.51-18.72l10.68,5.93c-.28-2.76-.7-5.51-1.19-8.26l-4.62-2.6c-.1.74-.12.93-.12,1v.1l-.16,1.25-11.75-.14c0-.09.06-.45.14-1a42.41,42.41,0,0,0-6.28,6.75c-.59.74-1.15,1.49-1.7,2.24-1.65,4-4.48,10.8-6.07,14.59l-1.77,4.27v.07c-.14,3.89-.41,11-1.29,24.87-5.47,9.22.78,13.87,3.06,15.51.63,2,1.22,4.42,1.84,7,2.42,9.94,5.7,23.47,16.26,32.13,7.13,5.84,26.08,11.76,29.73,12.87l3,.89,2.94-1.52c3.58-1.85,21.38-11.24,27.75-18,8.9-9.44,11.13-22.61,12.92-33.14.2-1.21.4-2.39.6-3.51a9,9,0,0,1-5.54-1.46C245.15,328.76,245,328.61,244.73,328.46Z"/><path class="cls-2" d="M214.46,261.52c0-.39-.09-.8-.14-1.23l-4.52,6.57,5.33.06C215.11,266.65,214.8,264.37,214.46,261.52Z"/><path class="cls-2" d="M177,262.65a10.48,10.48,0,0,0-7,2.72c-.08.57-.14.93-.14,1l11.75.14.16-1.25v-.1s0-.23.12-1l-2.71-1.52Z"/><path class="cls-2" d="M240.47,260.7l1.08,6.49,4,.05-.57-.84A46.85,46.85,0,0,0,240.47,260.7Z"/><path class="cls-2" d="M162,274.36a60.87,60.87,0,0,0-6.8,11.3c-.82,1.94-.87,3.15-1,7.56l1.77-4.27C157.5,285.16,160.33,278.34,162,274.36Z"/><path d="M234.32,309.1a13.56,13.56,0,0,1-1.67-2.24c.21-.15-.21-2.38-.69-4.58-.44-1.29-.86-2.57-1.29-3.86-.58,1.69-1.25,6.47-1.94,7.79,0,0-6.52-7.39-8.94-7.22-.06,0-6,4.43-9.73,5.87-.17,4.73-.37,9.46-.18,14.17a54,54,0,0,0,1,7.69,33.55,33.55,0,0,1,6.62-2.29l.73-.16.75,0a18.27,18.27,0,0,1,5.42.47,12.58,12.58,0,0,1,5.75,3.13l0,0c2.17-3.27,4.68-5,7.37-5.16a8.55,8.55,0,0,1,.88,0l1,.1c0-.05,0-.09,0-.14-.18-.36-.35-.74-.5-1.13C237.35,317.44,235.8,313.28,234.32,309.1Z"/><path d="M173.35,325.62h0c3-.14,5.83,1.47,8.22,4.66a16.58,16.58,0,0,1,3.21-2.44c-.14-1.35-.29-2.72-.45-4.14.76-5.17,1.79-10.84,2.56-16.64a38.43,38.43,0,0,0-5.66,3.23c-.49-.18-3.12-7.67-3.88-8.44,0,0-.94,8.08-.46,8.37a17.06,17.06,0,0,1-2.79,4.69c-1.17,1-2.32,3.67-3.66,2.57-2-1.66-.62-8.61-.29-10.85a41.25,41.25,0,0,1,4.7-13.66c1.85-3,5.68-7.93,5.68-7.93,1.13-1.68,4.28-1,7.67.7,0-.94,0-1.88,0-2.82L178,277.35a59.14,59.14,0,0,0-8.24,12.53c-.05.52-.1,1.9-.17,3.61-.15,4-.42,11.52-1.36,26.33l-.1,1.66-1,1.45c-.19.28-.35.52-.47.73a12.07,12.07,0,0,1,2.71,2.61l3-.54A8.49,8.49,0,0,1,173.35,325.62Z"/><path d="M210.21,291c1.08-.78,1.91-1.41,1.91-1.41,4.12-4.17,9.17-12.13,10-12.56a4.69,4.69,0,0,1,2.1-.47c-.44-1.66-.86-3.32-1.28-5L210.2,290.38C210.2,290.59,210.21,290.8,210.21,291Z"/><path d="M205.69,372.28l1,.35,1-.55c-.42.05-.84.11-1.28.15Z"/><path d="M239.53,322.85l-.09-.16c0,.05,0,.09,0,.14Z"/><path d="M242.07,326.25l0,.47a90.91,90.91,0,0,1-1.12,9.28c-1.2,7-3,12.68-5.37,16.78a35.07,35.07,0,0,1-6.61,9,50.61,50.61,0,0,1-7.59,5.84l-.07.05-.08.05a28.55,28.55,0,0,1-7,3.06,38.38,38.38,0,0,1-6.52,1.3l-1,.55-1-.35a37.93,37.93,0,0,1-7.17,0,26.09,26.09,0,0,1-7.28-1.82l-.08,0-.08,0a42.73,42.73,0,0,1-8.18-4.67,29.17,29.17,0,0,1-7.34-8.34c-2.68-4-4.75-9.73-6.13-17.1a85.7,85.7,0,0,1-1.29-9.85l-.23-3.86,1.41-.26a12.07,12.07,0,0,0-2.71-2.61c.12-.21.28-.45.47-.73l1-1.45.1-1.66c.94-14.81,1.21-22.31,1.36-26.33.07-1.71.12-3.09.17-3.61A59.14,59.14,0,0,1,178,277.35l10.19,5.57c-.06-1.94-.15-3.89-.3-5.83,0-.67-.12-1.35-.19-2L177,269.14c-2.3,0-11.51,11.63-14.51,18.72-.81,1.92-.07,2.6-1.94,31.9-5.4,7.73,1.6,8.19,2.46,10.62,3.38,9.51,4.48,27.51,16.46,37.44,6.43,5.33,27.25,11.78,27.25,11.78s20-10.21,25.85-16.37c8.91-9.37,10.25-24.73,12.18-34.77A20.26,20.26,0,0,1,242.07,326.25Z"/><path d="M210.2,290.38l12.71-18.79q-1.09-4.39-2.09-8.83l-10.88,15.95Q210.14,284.53,210.2,290.38Z"/><path class="cls-2" d="M185.88,337.9c-.09.19-.16.38-.24.58.19.57.37,1.15.53,1.75C186.07,339.46,186,338.68,185.88,337.9Z"/><path class="cls-2" d="M209.23,348.53l-.35.39a13.76,13.76,0,0,1,3.25-.65,13.21,13.21,0,0,1,4.24.4c.16-1,.25-2.08.34-3.15a19.18,19.18,0,0,1,.76-4.73l2.13-6,5.13,3.75.88.65c.19-.83.39-1.62.6-2.36-1.14-4.66-3.88-5.52-7.28-5.33a25,25,0,0,0-6.59,2.69C213.28,339.2,213.14,344.09,209.23,348.53Z"/><path d="M218.19,328l.37-.08.37,0c1.32-.06,5.33-.26,8.24,2.53a8.57,8.57,0,0,1,1,1.11l.35-.74a25,25,0,0,1,1.64-2.89l0,0a12.58,12.58,0,0,0-5.75-3.13,18.27,18.27,0,0,0-5.42-.47l-.75,0-.73.16a33.55,33.55,0,0,0-6.62,2.29c.23,1.25.49,2.49.74,3.72A29.69,29.69,0,0,1,218.19,328Z"/><path d="M183.7,333.77c.19-.23.37-.45.57-.67a11.87,11.87,0,0,1,1-.91c-.15-1.42-.3-2.87-.46-4.35a16.58,16.58,0,0,0-3.21,2.44,22.31,22.31,0,0,1,1.83,2.88C183.5,333.35,183.6,333.57,183.7,333.77Z"/><path d="M184.27,333.1c-.2.22-.38.44-.57.67a33.78,33.78,0,0,1,1.94,4.71c.08-.2.15-.39.24-.58q-.34-2.79-.64-5.71A11.87,11.87,0,0,0,184.27,333.1Z"/><path d="M212.34,334.18a25,25,0,0,1,6.59-2.69c3.4-.19,6.14.67,7.28,5.33a40,40,0,0,1,1.93-5.32,8.57,8.57,0,0,0-1-1.11c-2.91-2.79-6.92-2.59-8.24-2.53l-.37,0-.37.08a29.69,29.69,0,0,0-6.62,2.48c.21,1,.43,2,.63,3C212.25,333.69,212.3,333.93,212.34,334.18Z"/><path class="cls-2" d="M210.06,304.86c3.68-1.44,9.67-5.85,9.73-5.87,2.42-.17,8.94,7.22,8.94,7.22.69-1.32,1.36-6.1,1.94-7.79q-3.53-10.8-6.48-21.85a4.69,4.69,0,0,0-2.1.47c-.8.43-5.85,8.39-10,12.56,0,0-.83.63-1.91,1.41,0,2.23,0,4.48,0,6.72S210.14,302.48,210.06,304.86Z"/><path class="cls-2" d="M188.2,285.74c-3.39-1.67-6.54-2.38-7.67-.7,0,0-3.83,5-5.68,7.93a41.25,41.25,0,0,0-4.7,13.66c-.33,2.24-1.73,9.19.29,10.85,1.34,1.1,2.49-1.52,3.66-2.57a17.06,17.06,0,0,0,2.79-4.69c-.48-.29.46-8.37.46-8.37.76.77,3.39,8.26,3.88,8.44a38.43,38.43,0,0,1,5.66-3.23c.29-2.25.55-4.51.74-6.78C188,295.45,188.24,290.59,188.2,285.74Z"/><path class="cls-2" d="M232.65,306.86a13.56,13.56,0,0,0,1.67,2.24q-1.22-3.41-2.36-6.82C232.44,304.48,232.86,306.71,232.65,306.86Z"/><path class="cls-5" d="M213.56,233q4.68-1.3,9.25-2.76V214.83l-.22.21a42.27,42.27,0,0,1-13,7c.52,4.11,1,8.08,1.49,11.88A13.29,13.29,0,0,1,213.56,233Z"/><path class="cls-5" d="M188.13,219.64c-.22,1.5-.43,2.92-.61,4.26-.5,3.55-.9,6.37-1.22,8.62-.4,2.73-.48,3.35-.48,3.46,0,.49.13.61.13.61H186l14,.57a.51.51,0,0,0,.24,0s.09-.13,0-.6l0-.06v-.05c0-.26-.34-2.53-.47-3.39-.33-2.34-.73-5.22-1.19-8.56-.1-.77-.21-1.57-.32-2.39l-.15-.1A12.31,12.31,0,0,0,188.13,219.64Z"/><path class="cls-5" d="M209.43,267.4c0-.19,0-.37,0-.55l-5.1-.06-.12-1.17c0-.17-.15-1.18-.39-3s-.54-4-.84-6.24l0-.21q-.47-3.51-.87-6.46c-.33-2.47-.39-3.15-.39-3.39-.07-.39-.22-.4-.38-.4l-16.05-.52c-.59,0-.68.12-.71.24s-.09.82-.5,3.29c-.18,1.09-.36,2.25-.54,3.47a9.27,9.27,0,0,1,.82,2.63c.68,3.94,1.49,7.87,2.18,11.8l16.85,9.47Z"/><path class="cls-5" d="M240.31,223.22c4-2,5.63-6.34,3.93-9.13a12.37,12.37,0,0,0-10.88-5.56v17.9C235.73,225.44,238.06,224.37,240.31,223.22Z"/><path class="cls-5" d="M130.16,281.91c3.38-.08,6.5-2,8.51-5.68a32.47,32.47,0,0,1,4.85-6.82,57.6,57.6,0,0,1,5.43-5V252c-.46.33-.92.65-1.4,1-5.16,3.35-11.23,5.37-17.4,7.39v5.61l-10.7-.12a7,7,0,0,0-1.76,5.09l12.47.08Z"/><path class="cls-5" d="M171.73,252.18c.08-.61.17-1.25.26-1.91.49-3.48,1-7.45,1.6-11.82a82.36,82.36,0,0,0-12.31,5.37v12.83A98,98,0,0,1,171.73,252.18Z"/><path class="cls-5" d="M130.15,260.31c-1.27.41-2.54.82-3.82,1.25a15,15,0,0,0-6.88,4.24l10.7.12Z"/><path class="cls-5" d="M149,252v12.5a68.88,68.88,0,0,1,12.33-7.81V243.82c-1.25.65-2.5,1.32-3.73,2C154.43,247.51,151.84,249.89,149,252Z"/><path class="cls-5" d="M171.73,252.18c1.37-.5,2.75-1,4.15-1.43,4-1.3,6.34-.82,7.59,1.63.18-1.22.36-2.38.54-3.47.41-2.47.49-3.07.5-3.29s.12-.26.71-.24l16.05.52c.16,0,.31,0,.38.4,0,.24.06.92.39,3.39q.41,3,.87,6.46l0,.21c.3,2.25.58,4.34.84,6.24s.37,2.85.39,3l.12,1.17,5.1.06q-.73-12.63-2.17-25.29c-.43-3.73.87-6.16,3.88-7.66-.47-3.8-1-7.77-1.49-11.88-1.24.46-2.5.89-3.78,1.31a7.31,7.31,0,0,1-7.59-1.23c.11.82.22,1.62.32,2.39.46,3.34.86,6.22,1.19,8.56.13.86.45,3.13.47,3.39v.05l0,.06c.1.47,0,.6,0,.6a.51.51,0,0,1-.24,0l-14-.57H186s-.13-.12-.13-.61c0-.11.08-.73.48-3.46.32-2.25.72-5.07,1.22-8.62.18-1.34.39-2.76.61-4.26-3.74.72-7,3.11-7.93,6.73a24.38,24.38,0,0,0-.52,4.92c-.2,3.5-1.6,5.71-5.86,7.08l-.23.08c-.58,4.37-1.11,8.34-1.6,11.82C171.9,250.93,171.81,251.57,171.73,252.18Z"/><path class="cls-5" d="M229,228.15c1.48-.53,2.93-1.11,4.37-1.72v-17.9a10.5,10.5,0,0,0-7,2.79c-1.2,1.16-2.29,2.42-3.55,3.51v15.39C224.9,229.56,227,228.88,229,228.15Z"/><path class="cls-5" d="M121.71,278.2a12,12,0,0,0,8.45,3.71V271l-12.47-.08C117.84,273.24,119.18,275.75,121.71,278.2Z"/><path class="cls-5" d="M209.94,278.71q-.19-5.65-.51-11.31l-6.11,8.88-16.85-9.47c.49,2.75.91,5.5,1.19,8.26l18,10Z"/><path class="cls-5" d="M210.2,290.38l-.82,1.22c.28-.21.56-.4.83-.59C210.21,290.8,210.2,290.59,210.2,290.38Z"/><path class="cls-5" d="M207.25,304.44,205.39,294l-.14,0-.15,0-1.86,10.54c-.13,3.71-13.26,1.72-13.35,1.7h0a7.73,7.73,0,0,0-3,.81c-.77,5.8-1.8,11.47-2.56,16.64.16,1.42.31,2.79.45,4.14a18.36,18.36,0,0,1,8.4-2.42l.88,0,.86.12a32,32,0,0,1,7.67,2.23,28.31,28.31,0,0,1,3.43,1.78,29.58,29.58,0,0,1,3.64-2.21c.4-.21.79-.4,1.17-.58a54,54,0,0,1-1-7.69c-.19-4.71,0-9.44.18-14.17C208.46,305.49,207.29,305.55,207.25,304.44Z"/><path class="cls-5" d="M193.57,289s11.68,5,11.53,4.94h.29a4.76,4.76,0,0,0,1.56-.75l-18.8-10.29c0,.94,0,1.88,0,2.82A36.94,36.94,0,0,1,193.57,289Z"/><path class="cls-5" d="M188.15,282.92,207,293.21c.73-.45,1.6-1,2.43-1.61l.82-1.22q-.06-5.85-.26-11.67L205.62,285l-18-10c.07.67.14,1.35.19,2C188,279,188.09,281,188.15,282.92Z"/><path class="cls-5" d="M186.18,340.25c.12.44.24.89.35,1.34l.95-.79,5.47-4.51,2.23,5.89a18,18,0,0,1,.79,4.74c.09,1.07.19,2.19.36,3.16a14.65,14.65,0,0,1,4.37-1,12.45,12.45,0,0,1,5.75.93,13.67,13.67,0,0,1,2.43-1.08l.35-.39c3.91-4.44,4.05-9.33,3.11-14.35-2.58,1.55-5.16,3.85-6.12,7.15-3-7.13-13-8.47-13-8.47a8.08,8.08,0,0,0-7.3,5c.09.78.19,1.56.29,2.33Z"/><path class="cls-5" d="M206,329.51a28.31,28.31,0,0,0-3.43-1.78,32,32,0,0,0-7.67-2.23l-.86-.12-.88,0a18.36,18.36,0,0,0-8.4,2.42c.16,1.48.31,2.93.46,4.35a12.89,12.89,0,0,1,7.94-3.05l.44,0,.43.06c.38.05,7.1,1,12,5.21a22.51,22.51,0,0,1,5.53-3.95c-.25-1.23-.51-2.47-.74-3.72-.38.18-.77.37-1.17.58A29.58,29.58,0,0,0,206,329.51Z"/><path class="cls-5" d="M193.18,332.86s10.08,1.34,13,8.47c1-3.3,3.54-5.6,6.12-7.15,0-.25-.09-.49-.14-.74-.2-1-.42-2-.63-3a22.51,22.51,0,0,0-5.53,3.95c-4.89-4.19-11.61-5.16-12-5.21l-.43-.06-.44,0a12.89,12.89,0,0,0-7.94,3.05q.3,2.93.64,5.71A8.08,8.08,0,0,1,193.18,332.86Z"/><path class="cls-5" d="M205.1,294c.15,0-11.53-4.94-11.53-4.94a36.94,36.94,0,0,0-5.37-3.28c0,4.85-.18,9.71-.57,14.54-.19,2.27-.45,4.53-.74,6.78a7.73,7.73,0,0,1,3-.81h0c.09,0,13.22,2,13.35-1.7L205.1,294l.15,0,.14,0,1.86,10.43c0,1.11,1.21,1.05,2.81.42.08-2.38.16-4.76.17-7.13s0-4.49,0-6.72c-.27.19-.55.38-.83.59l-1.46,2.15-1-.54a4.76,4.76,0,0,1-1.56.75Z"/><path class="cls-5" d="M209.38,291.6c-.83.57-1.7,1.16-2.43,1.61l1,.54Z"/><path class="cls-2" d="M178.48,334.32c-1.75-2.93-3.68-4.5-5.13-4.42l-.24,0a82,82,0,0,0,2.75,15.83,30.2,30.2,0,0,1,.38-4.69A21.07,21.07,0,0,1,178.48,334.32Z"/><path class="cls-2" d="M234.59,344.31a82.63,82.63,0,0,0,3.12-17.58h-.21c-1.32.07-3.1,1.82-4.71,4.95a19.49,19.49,0,0,1,1.55,5.58A42.1,42.1,0,0,1,234.59,344.31Z"/><path class="cls-2" d="M217.69,353.88a9.28,9.28,0,0,0-5.56-1.49,8.76,8.76,0,0,0-5.68,2.84,7.44,7.44,0,0,0-3.64-1.86,11.94,11.94,0,0,1-6.2,1.16A16.41,16.41,0,0,0,195,355.6c-1.47-.13-2.32-1.2-2.84-2.66a9,9,0,0,1-2.47-2.42,19,19,0,0,1-2.22-4.08c-.95.78-1.93,1.59-2.75,2.25.13,1.48.34,3.08.65,4.83.72,4.06,6.47,11.92,20.9,10.7,14-1.2,19.58-9.44,20.06-13.69.22-1.91.36-3.63.44-5.18-2.1-1.49-4.95-3.57-4.95-3.57C220.76,344.66,221.86,352.85,217.69,353.88Z"/><path class="cls-2" d="M230.2,350.61a15.51,15.51,0,0,1-3.87,8,30.56,30.56,0,0,0,5.34-7.46,34.13,34.13,0,0,0,2.92-6.87,42.1,42.1,0,0,0-.25-7.06,19.49,19.49,0,0,0-1.55-5.58,32.37,32.37,0,0,0-2.34,6.16A52.83,52.83,0,0,1,230.2,350.61Z"/><path class="cls-2" d="M195,367.1a27.88,27.88,0,0,0,11.42,1,28.26,28.26,0,0,0,12.5-3.71l.05,0a34.1,34.1,0,0,1-12.78,3.54A32.68,32.68,0,0,1,195,367.1Z"/><path class="cls-2" d="M184,360.34a13.37,13.37,0,0,1-2.92-5.94c-1.07-6-1.12-10.86-.17-14.73a28,28,0,0,0-2.41-5.35,21.07,21.07,0,0,0-2.24,6.74,30.2,30.2,0,0,0-.38,4.69,33.53,33.53,0,0,0,4,9.27A27.65,27.65,0,0,0,184,360.34Z"/><path class="cls-2" d="M181.06,354.4a13.37,13.37,0,0,0,2.92,5.94c2.9,2.91,6.05,4.54,9.65,6.23.46.2.92.37,1.4.53a32.68,32.68,0,0,0,11.19.79A34.1,34.1,0,0,0,219,364.35a43,43,0,0,0,7.33-5.71,15.51,15.51,0,0,0,3.87-8,52.83,52.83,0,0,0,.25-12.78,46.83,46.83,0,0,0-1.53,9h0c-.06,0-1-.66-2.2-1.51-.08,1.55-.22,3.27-.44,5.18-.48,4.25-6,12.49-20.06,13.69-14.43,1.22-20.18-6.64-20.9-10.7-.31-1.75-.52-3.35-.65-4.83-1,.79-1.69,1.36-1.74,1.37h0a43.85,43.85,0,0,0-2-10.38C179.94,343.54,180,348.43,181.06,354.4Z"/><path class="cls-2" d="M187.42,346.44a19,19,0,0,0,2.22,4.08,9,9,0,0,0,2.47,2.42c-1-2.88-.75-7.3-1.46-9.17Z"/><path class="cls-2" d="M196.61,354.53a11.94,11.94,0,0,0,6.2-1.16,7.88,7.88,0,0,0-2.11-.14A10.08,10.08,0,0,0,196.61,354.53Z"/><path d="M206.22,371.56c-.75.07-1.47.11-2.18.14l1.65.58.76,0c.44,0,.86-.1,1.28-.15l1.77-.95C208.45,371.3,207.36,371.45,206.22,371.56Z"/><path d="M170.56,328.91l0-.68,2.21-.4a4.36,4.36,0,0,1,.62-.07c2.35-.11,4.64,1.51,6.59,4.33a14.13,14.13,0,0,1,1.06-1.26c.18-.2.38-.37.57-.55-2.39-3.19-5.19-4.8-8.22-4.66h0a8.49,8.49,0,0,0-1,.11l-3,.54a7.62,7.62,0,0,1,1,1.88C170.4,328.4,170.48,328.66,170.56,328.91Z"/><path d="M237.5,324.72a3.35,3.35,0,0,1,.55,0l.83.08c.16-.68.33-1.34.52-2l-1-.1a8.55,8.55,0,0,0-.88,0c-2.69.12-5.2,1.89-7.37,5.16a12.72,12.72,0,0,1,1.43,1.67C233.32,326.61,235.4,324.82,237.5,324.72Z"/><path d="M238.88,324.81l1.1.1-.1,1.81c0,.64-.9,15.34-5.87,24.55a17.58,17.58,0,0,1-2.18,5.93,24.82,24.82,0,0,1-5.27,6.33,34,34,0,0,1-17.06,7.6l-1.77.95a38.38,38.38,0,0,0,6.52-1.3,28.55,28.55,0,0,0,7-3.06l.08-.05.07-.05a50.61,50.61,0,0,0,7.59-5.84,35.07,35.07,0,0,0,6.61-9c2.36-4.1,4.17-9.74,5.37-16.78a90.91,90.91,0,0,0,1.12-9.28l0-.47a14,14,0,0,1-2.54-3.4l-.13,0C239.21,323.47,239,324.13,238.88,324.81Z"/><path d="M185,367a21.33,21.33,0,0,1-5.68-5.6,16,16,0,0,1-2.59-6.06c-.06-.34-.11-.65-.16-1-5-9.16-5.93-23.51-6-24.16l-.07-1.24c-.08-.25-.16-.51-.25-.76a7.62,7.62,0,0,0-1-1.88l-1.41.26.23,3.86a85.7,85.7,0,0,0,1.29,9.85c1.38,7.37,3.45,13.13,6.13,17.1a29.17,29.17,0,0,0,7.34,8.34,42.73,42.73,0,0,0,8.18,4.67l.08,0,.08,0a26.09,26.09,0,0,0,7.28,1.82,37.93,37.93,0,0,0,7.17,0L204,371.7C194.78,372.11,188.64,369.41,185,367Z"/><path d="M224.73,338.53l-5.13-3.75-2.13,6a19.18,19.18,0,0,0-.76,4.73c-.09,1.07-.18,2.17-.34,3.15a13.21,13.21,0,0,0-4.24-.4,13.76,13.76,0,0,0-3.25.65,21,21,0,0,1-3.53,3,9.4,9.4,0,0,1,1.1.54,10.81,10.81,0,0,1,11.32-1,5.24,5.24,0,0,0,.5-1.13,25.18,25.18,0,0,0,.71-4.8,17.28,17.28,0,0,1,.65-4.23l1.06-3,2.56,1.88,3.54,2.57a24.84,24.84,0,0,0-.58-5.91c-.21.74-.41,1.53-.6,2.36Z"/><path d="M184.87,345.74c.6-.48,1.24-1,1.89-1.55,0-.11,0-.22-.06-.33-.19-1.21-.37-2.41-.53-3.63-.16-.6-.34-1.18-.53-1.75a17.64,17.64,0,0,0-1.07,5.57C184.68,344.61,184.78,345.17,184.87,345.74Z"/><path d="M183.7,333.77c-.1-.2-.2-.42-.3-.61a22.31,22.31,0,0,0-1.83-2.88c-.19.18-.39.35-.57.55a14.13,14.13,0,0,0-1.06,1.26,25,25,0,0,1,2.22,4.07A13,13,0,0,1,183.7,333.77Z"/><path d="M206.45,370.16a39.32,39.32,0,0,1-6.38.09c1.35.51,2.68,1,4,1.45.71,0,1.43-.07,2.18-.14,1.14-.11,2.23-.26,3.28-.43,1.31-.72,2.67-1.47,4-2.25A37.58,37.58,0,0,1,206.45,370.16Z"/><path d="M228.14,331.5a10.47,10.47,0,0,1,1.32,2.41,27,27,0,0,1,2.1-4.37,12.72,12.72,0,0,0-1.43-1.67,25,25,0,0,0-1.64,2.89Z"/><path d="M220.16,366l0,0,0,0a25.74,25.74,0,0,1-6.55,2.83c-1.36.78-2.72,1.53-4,2.25a34,34,0,0,0,17.06-7.6,24.82,24.82,0,0,0,5.27-6.33,17.58,17.58,0,0,0,2.18-5.93l-.39.71C229.76,359.3,225.45,362.52,220.16,366Z"/><path d="M192.44,368.49h0l0,0c-5.65-2.64-10.35-5.24-14.63-12.28-.4-.59-.77-1.22-1.13-1.87.05.33.1.64.16,1a16,16,0,0,0,2.59,6.06A21.33,21.33,0,0,0,185,367c3.61,2.46,9.75,5.16,19,4.75-1.29-.45-2.62-.94-4-1.45A24.51,24.51,0,0,1,192.44,368.49Z"/><path d="M226.79,342.73l.35.25a44.14,44.14,0,0,1,2.32-9.07,10.47,10.47,0,0,0-1.32-2.41,40,40,0,0,0-1.93,5.32A24.84,24.84,0,0,1,226.79,342.73Z"/><path d="M185.64,338.48a33.78,33.78,0,0,0-1.94-4.71,13,13,0,0,0-1.54,2.39,39,39,0,0,1,2.41,7.89A17.64,17.64,0,0,1,185.64,338.48Z"/><path d="M191.8,340l1.12,3a16.92,16.92,0,0,1,.68,4.25,22.64,22.64,0,0,0,.75,4.82,4.29,4.29,0,0,0,.51,1.08,13.16,13.16,0,0,1,5.84-2,10.09,10.09,0,0,1,4.65.76,21,21,0,0,0,3.53-3,13.67,13.67,0,0,0-2.43,1.08,12.45,12.45,0,0,0-5.75-.93,14.65,14.65,0,0,0-4.37,1c-.17-1-.27-2.09-.36-3.16a18,18,0,0,0-.79-4.74L193,336.29l-5.47,4.51-.95.79c-.11-.45-.23-.9-.35-1.34v0c.16,1.22.34,2.42.53,3.63,0,.11,0,.22.06.33l2.31-1.9Z"/><path d="M237.5,324.72c-2.1.1-4.18,1.89-5.94,4.82a13.78,13.78,0,0,1,1.23,2.13c1.61-3.13,3.39-4.88,4.71-4.95h.21a82.63,82.63,0,0,1-3.12,17.58c0,.62-.06,1.26-.1,1.91a121.44,121.44,0,0,0,2.87-13.53c.5-2.91,1-5.54,1.52-7.88l-.83-.08A3.35,3.35,0,0,0,237.5,324.72Z"/><path d="M175.94,348.65c-.06-1-.09-2-.08-2.9a82,82,0,0,1-2.75-15.83l.24,0c1.45-.08,3.38,1.49,5.13,4.42a16.78,16.78,0,0,1,1.46-2.23c-1.95-2.82-4.24-4.44-6.59-4.33a4.36,4.36,0,0,0-.62.07l-2.21.4,0,.68c.81,2.48,1.5,5.28,2.21,8.25A116.69,116.69,0,0,0,175.94,348.65Z"/><path d="M172.77,337.16c-.71-3-1.4-5.77-2.21-8.25l.07,1.24c0,.65,1,15,6,24.16a56.38,56.38,0,0,1-.66-5.66A116.69,116.69,0,0,1,172.77,337.16Z"/><path d="M234.49,346.22c-.09,1.4-.22,2.89-.4,4.48,0,.19-.05.38-.08.57,5-9.21,5.84-23.91,5.87-24.55l.1-1.81-1.1-.1c-.56,2.34-1,5-1.52,7.88A121.44,121.44,0,0,1,234.49,346.22Z"/><path d="M186.76,344.19c-.65.54-1.29,1.07-1.89,1.55-.09-.57-.19-1.13-.3-1.69a35.36,35.36,0,0,0,.1,4.64c.82-.66,1.8-1.47,2.75-2.25A13.12,13.12,0,0,1,186.76,344.19Z"/><path d="M220.69,338.28l-1.06,3a17.28,17.28,0,0,0-.65,4.23,25.18,25.18,0,0,1-.71,4.8,5.24,5.24,0,0,1-.5,1.13,10.81,10.81,0,0,0-11.32,1,9.4,9.4,0,0,0-1.1-.54c-.65.43-1.32.84-2,1.2l-.54.26a7.44,7.44,0,0,1,3.64,1.86,8.76,8.76,0,0,1,5.68-2.84,9.28,9.28,0,0,1,5.56,1.49c4.17-1,3.07-9.22,4.08-12.1,0,0,2.85,2.08,4.95,3.57.05-.93.07-1.81.07-2.62l-3.54-2.57Z"/><path d="M195,355.6a16.41,16.41,0,0,1,1.66-1.07,9.78,9.78,0,0,1-4.5-1.59C192.63,354.4,193.48,355.47,195,355.6Z"/><path d="M232.79,331.67a13.78,13.78,0,0,0-1.23-2.13,27,27,0,0,0-2.1,4.37,17,17,0,0,1,1,3.92A32.37,32.37,0,0,1,232.79,331.67Z"/><path d="M226.33,358.64A23,23,0,0,1,224,361a25.55,25.55,0,0,1-5,3.33l-.05,0a28.26,28.26,0,0,1-12.5,3.71,27.88,27.88,0,0,1-11.42-1,22.66,22.66,0,0,1-7.17-3.2,18.43,18.43,0,0,1-3.88-3.56A27.65,27.65,0,0,1,179.9,355a33.53,33.53,0,0,1-4-9.27c0,.93,0,1.9.08,2.9,1.9,5.45,4.58,10.66,8.89,14.27,2.52,2.12,9,4.95,15.24,7.33a39.32,39.32,0,0,0,6.38-.09,37.58,37.58,0,0,0,7.08-1.28c5.93-3.37,11.84-7.09,14.13-9.47,3.29-3.43,5.37-8.17,6.83-13.19,0-.65.08-1.29.1-1.91a34.13,34.13,0,0,1-2.92,6.87A30.56,30.56,0,0,1,226.33,358.64Z"/><path d="M180.89,339.67a16.53,16.53,0,0,1,1.27-3.51,25,25,0,0,0-2.22-4.07,16.78,16.78,0,0,0-1.46,2.23A28,28,0,0,1,180.89,339.67Z"/><path d="M192.36,368.46l0,0h0a24.51,24.51,0,0,0,7.63,1.76c-6.26-2.38-12.72-5.21-15.24-7.33-4.31-3.61-7-8.82-8.89-14.27a56.38,56.38,0,0,0,.66,5.66c.36.65.73,1.28,1.13,1.87C182,363.22,186.71,365.82,192.36,368.46Z"/><path d="M234.49,346.22c-1.46,5-3.54,9.76-6.83,13.19-2.29,2.38-8.2,6.1-14.13,9.47a25.74,25.74,0,0,0,6.55-2.83l0,0,0,0c5.29-3.49,9.6-6.71,13.46-14l.39-.71c0-.19.06-.38.08-.57C234.27,349.11,234.4,347.62,234.49,346.22Z"/><path d="M182.93,350.06s.77-.58,1.74-1.37a35.36,35.36,0,0,1-.1-4.64,39,39,0,0,0-2.41-7.89,16.53,16.53,0,0,0-1.27,3.51,43.85,43.85,0,0,1,2,10.38Z"/><path d="M219,364.35a25.55,25.55,0,0,0,5-3.33,23,23,0,0,0,2.36-2.38A43,43,0,0,1,219,364.35Z"/><path d="M184,360.34a18.43,18.43,0,0,0,3.88,3.56,22.66,22.66,0,0,0,7.17,3.2c-.48-.16-.94-.33-1.4-.53C190,364.88,186.88,363.25,184,360.34Z"/><path d="M226.79,342.73c0,.81,0,1.69-.07,2.62,1.19.85,2.14,1.51,2.2,1.51h0a46.83,46.83,0,0,1,1.53-9,17,17,0,0,0-1-3.92,44.14,44.14,0,0,0-2.32,9.07Z"/><path d="M190.65,343.77c.71,1.87.44,6.29,1.46,9.17a9.78,9.78,0,0,0,4.5,1.59,10.08,10.08,0,0,1,4.09-1.3,7.88,7.88,0,0,1,2.11.14l.54-.26c.68-.36,1.35-.77,2-1.2a10.09,10.09,0,0,0-4.65-.76,13.16,13.16,0,0,0-5.84,2,4.29,4.29,0,0,1-.51-1.08,22.64,22.64,0,0,1-.75-4.82,16.92,16.92,0,0,0-.68-4.25l-1.12-3-2.73,2.27-2.31,1.9a13.12,13.12,0,0,0,.66,2.25Z"/><path class="cls-5" d="M255.66,311.25a38,38,0,0,1-2.91-3.47l.71,4.08c1.56,2.25,3.08,5.26,2.43,8.57a9.62,9.62,0,0,1-4.15,5.91c-.29,1.17-.56,2.54-.83,4a11.15,11.15,0,0,0,6.92-3,13.43,13.43,0,0,0,4.29-9.76l-.45-.41C259.56,315.24,257.53,313.26,255.66,311.25Z"/><path class="cls-5" d="M299,229.54c-.53-3.5-1-6.42-1.35-8.95-.2-1.29-.37-2.46-.52-3.54l-.81,1.12c-.11.69-.22,1.42-.34,2.19-.38,2.5-.82,5.36-1.36,8.76s-1,6.68-1.56,10.1c-.76,5-1.64,10.85-2.6,17.13,3.39-5.17,6.84-10.24,10.3-15.25l-.21-1.43C300,236,299.4,232.32,299,229.54Z"/><path class="cls-5" d="M308,232.74c.51-.4,1-.79,1.57-1.16.08-.51.16-1,.23-1.49.42-2.76.9-5.9,1.45-9.35s1.07-7,1.56-10.61c.32-2.16.66-4.45,1-6.85a10.86,10.86,0,0,0-7.92,3.09c-.49.49-1,1-1.43,1.5.09.68.19,1.35.28,2C305.76,216.79,306.85,224.46,308,232.74Z"/><path class="cls-5" d="M272.81,280.77a3.66,3.66,0,0,0-2.86-.95h-7.18a3.32,3.32,0,0,0-2.83,1.21,5.1,5.1,0,0,0-1,3.21v11.1a11.78,11.78,0,0,0,1.73,6.32,26.69,26.69,0,0,0,2.52,3.38,45.3,45.3,0,0,1,5.11-12.81c1.68-2.88,3.63-5.6,5.37-8.41v-.46A3.75,3.75,0,0,0,272.81,280.77Z"/><path class="cls-5" d="M285.17,232.27c-.35.44-.71.87-1.06,1.3l.45,3C284.77,235.07,285,233.66,285.17,232.27Z"/><path class="cls-5" d="M249,285.72h-.06l.06.32Z"/><path class="cls-5" d="M270.91,272c3.56,0,6.38.74,8.43,2.12q1.91-3.22,3.86-6.4l-2.78,0-3.74-24.38A198.72,198.72,0,0,0,259.15,272a22.22,22.22,0,0,1,2.77-.14Z"/><path class="cls-5" d="M219.27,253.09l1.4-2,2.14.06v-3.32A8.08,8.08,0,0,0,219.27,253.09Z"/><path class="cls-5" d="M238.72,258.91l1.45,0q-.45-2.69-.94-5.36a11.41,11.41,0,0,0-2-5,7.68,7.68,0,0,0-3.87-2.55v8.55A37.88,37.88,0,0,1,238.72,258.91Z"/><path class="cls-5" d="M325,215.7c-.13-3.57-1.1-6.9-3.24-9.21l-3,20.64C322.65,224.62,324.44,220.48,325,215.7Z"/><path class="cls-5" d="M240.47,260.7l-.3-1.76-1.45,0C239.31,259.47,239.89,260.07,240.47,260.7Z"/><path class="cls-5" d="M222.94,247.69l-.13.1v3.32l1.7,0c2.38.07,5.52,1.24,8.85,3.43V246A12.75,12.75,0,0,0,222.94,247.69Z"/><path class="cls-5" d="M311.25,220.74c-.55,3.45-1,6.59-1.45,9.35-.07.48-.15,1-.23,1.49a23.85,23.85,0,0,1,5.92-2.92,14.14,14.14,0,0,0,3.25-1.53l3-20.64a9.77,9.77,0,0,0-5.3-2.92,14.23,14.23,0,0,0-2.65-.29c-.36,2.4-.7,4.69-1,6.85C312.32,213.7,311.79,217.27,311.25,220.74Z"/><path class="cls-5" d="M283.2,267.68q3.56-5.74,7.23-11.33c1-6.28,1.84-12.11,2.6-17.13.51-3.42,1-6.82,1.56-10.1s1-6.26,1.36-8.76c.12-.77.23-1.5.34-2.19a76.88,76.88,0,0,1-4.71,6.51q-3.25,3.73-6.41,7.59c-.2,1.39-.4,2.8-.61,4.25l-.45-3c-2.54,3.16-5,6.39-7.43,9.7l3.74,24.38Z"/><path class="cls-5" d="M297.1,217.05c.15,1.08.32,2.25.52,3.54.37,2.53.82,5.45,1.35,8.95.43,2.78,1,6.44,1.55,10.13l.21,1.43.89-1.29a33,33,0,0,1,6.38-7.07c-1.15-8.28-2.24-16-3.24-22.85-.09-.67-.19-1.34-.28-2-2.52,2.75-4.76,5.81-7.08,8.79C297.29,216.79,297.2,216.92,297.1,217.05Z"/><path class="cls-5" d="M279.34,274.08c-2-1.38-4.87-2.09-8.43-2.12l-9-.06a22.22,22.22,0,0,0-2.77.14c-1.16,2.35-2.28,4.72-3.34,7.14a34.61,34.61,0,0,1-2.39,4.55,4.49,4.49,0,0,1-4.47,2V286l3.8,21.75a38,38,0,0,0,2.91,3.47c1.87,2,3.9,4,6,5.9l.45.41c0-.49,0-1,0-1.5a44.26,44.26,0,0,1,1.07-11,26.69,26.69,0,0,1-2.52-3.38,11.78,11.78,0,0,1-1.73-6.32v-11.1a5.1,5.1,0,0,1,1-3.21,3.32,3.32,0,0,1,2.83-1.21H270a3.66,3.66,0,0,1,2.86.95,3.75,3.75,0,0,1,.87,2.6v.46c.48-.77.95-1.54,1.39-2.33C276.46,279,277.89,276.53,279.34,274.08Z"/><path class="cls-5" d="M255.89,320.43c.65-3.31-.87-6.32-2.43-8.57l-.71-4.08c-.68-.91-1.31-1.82-1.86-2.73a12.86,12.86,0,0,1-1.94-6.72V286l-.06-.32a4.07,4.07,0,0,1-2.94-2,21.29,21.29,0,0,1-2.59-6.26c-.65-3.4-1.23-6.81-1.81-10.24l-3.91,0c.6.76,1.2,1.56,1.79,2.43l7.87,44.76c5.59,7.16-.65,6.87-1.38,9.18a45.61,45.61,0,0,0-1.19,4.94c.22.15.42.3.64.44a9,9,0,0,0,5.54,1.46c.27-1.48.54-2.85.83-4A9.62,9.62,0,0,0,255.89,320.43Z"/><path class="cls-5" d="M219.27,253.09a8.25,8.25,0,0,0,.1,2.91q.69,3.39,1.45,6.76l2.5-3.67a16.5,16.5,0,0,1-.51-4.27v-3.71l-2.14-.06Z"/><path class="cls-5" d="M234.37,257.81a4.34,4.34,0,0,0,3.16,1.07l1.19,0a37.88,37.88,0,0,0-5.36-4.32v.5A3.74,3.74,0,0,0,234.37,257.81Z"/><path class="cls-5" d="M238.72,258.91l-1.19,0a4.34,4.34,0,0,1-3.16-1.07,3.74,3.74,0,0,1-1-2.72v-.5c-3.33-2.19-6.47-3.36-8.85-3.43l-1.7,0v3.71a16.5,16.5,0,0,0,.51,4.27l1.19-1.74c1.87,0,7.71,3,13.13,9.8l3.91,0-1.08-6.49C239.89,260.07,239.31,259.47,238.72,258.91Z"/><path class="cls-5" d="M250.89,305.05c.55.91,1.18,1.82,1.86,2.73L249,286v12.3A12.86,12.86,0,0,0,250.89,305.05Z"/><path class="cls-5" d="M238.57,312.56c-1.17,1.12-1.47-1.24-3.64-2.88a8.36,8.36,0,0,1-.61-.58c1.48,4.18,3,8.34,4.62,12.46.15.39.32.77.5,1.13.06-.21.12-.42.18-.61a8.46,8.46,0,0,1,2.55-3.76L242,318l-.87-1.11-2.48-14V303C238.89,305,240.33,310.88,238.57,312.56Z"/><path class="cls-5" d="M230.93,297.88a1.79,1.79,0,0,0-.26.54c.43,1.29.85,2.57,1.29,3.86C231.47,300.06,230.93,297.88,230.93,297.88Z"/><path class="cls-5" d="M225.28,276.74c.81.28,3.33,2.51,4.31,5.64,0,0,2.23,8.27,1.92,10.86,0,0,1.73-5.13,1.77-8,.47.43,3.3,7.56,4.75,14.46l-4.94-27.92a31.24,31.24,0,0,0-6.07-6.27l-4.11,6.07c.42,1.66.84,3.32,1.28,5A3.11,3.11,0,0,1,225.28,276.74Z"/><path class="cls-5" d="M226.36,264.12a9.55,9.55,0,0,1-3-5l-2.5,3.67q1,4.44,2.09,8.83l4.11-6.07a31.24,31.24,0,0,1,6.07,6.27L238,299.71q.34,1.62.57,3.18l2.48,14L242,318l.22.28a8.46,8.46,0,0,0-2.55,3.76c-.06.19-.12.4-.18.61l.09.16,2.72.26-.18,3.14a20.26,20.26,0,0,0,2.66,2.21,45.61,45.61,0,0,1,1.19-4.94c.73-2.31,7-2,1.38-9.18l-7.87-44.76c-.59-.87-1.19-1.67-1.79-2.43l-1.15,0C232.09,267.08,228.68,266.07,226.36,264.12Zm-2.83-.7Z"/><path class="cls-5" d="M224.51,257.35l-1.19,1.74a9.55,9.55,0,0,0,3,5c2.32,1.95,5.73,3,10.13,3l1.15,0C232.22,260.31,226.38,257.39,224.51,257.35Z"/><path class="cls-5" d="M231.51,293.24c.31-2.59-1.92-10.86-1.92-10.86-1-3.13-3.5-5.36-4.31-5.64a3.11,3.11,0,0,0-1.09-.17q2.94,11.06,6.48,21.85a1.79,1.79,0,0,1,.26-.54s.54,2.18,1,4.4q1.14,3.42,2.36,6.82a8.36,8.36,0,0,0,.61.58c2.17,1.64,2.47,4,3.64,2.88,1.76-1.68.32-7.52,0-9.61v-.06l-.57-3.18c-1.45-6.9-4.28-14-4.75-14.46C233.24,288.11,231.51,293.24,231.51,293.24Z"/><path class="cls-5" d="M238,299.71l.57,3.18Q238.38,301.33,238,299.71Z"/><path class="cls-5" d="M242.25,323.11l-2.72-.26a14,14,0,0,0,2.54,3.4Z"/><polygon class="cls-3" points="62.3 104.73 10.4 117.06 10.4 422.59 62.3 434.92 62.3 104.73"/><polygon class="cls-1" points="223.22 123.91 211.75 77.83 177.15 72.72 168.46 61.49 162.4 34.07 124.04 15.18 170.98 28.09 175.94 42.58 185.34 63.56 220.53 64.05 249.73 124.87 223.22 123.91"/><polygon class="cls-1" points="261.75 117.77 315.38 58.26 352.16 55.85 356.68 23.29 383.01 10.94 360.27 25.53 358.19 60.86 318.11 66.99 277.45 130.04 261.75 117.77"/><ellipse class="cls-2" cx="371.61" cy="248.21" rx="11.86" ry="15.54"/><path d="M77,493c.28.77,1.4,1,3.35.74l5.19,13.46,2.79-.4.06.4L86,508l0,.4c.8-.12,1.24.09,1.31.62l3.18-.46.06.4q.13.88-3.75,2.16L88,513.36l-.22,1.25.74,2.32-.34.46.4-.06-.34.46,1.08,4.71.35,2.39-.46-.34-.39.06,2,5.79-.79.12c-.12-.8-.44-1.16-1-1.08l.06.4.57,1.13-.4.06-.46-.34-.39.06c.11.79-.1,1.23-.63,1.3l-3-6.47-.4.06.23,1.59-.4.06-1.48-4.66,1.3.62,0-.4c-.57-2.35-1.14-3.49-1.71-3.4l.34-.46-.18-1.19-.79.11.17,1.19-.4.06-.23-1.59.34-.45-.39,0-.34.46L80.69,516l.39-.06.46.34.4-.06-.46-.34-.34-2.38-8.47,3.25.12.79,2.67-1.19,1.65.16,1.93-.68.11.79q-8.13,2.72-7.78,5.19c-.28,3-.8,5-1.58,5.91l.12.8-1.2.17-.45-.34-.4.06.06.39-1.31-.62.45-2.5-.4.06c-.79.11-1,1.23-.73,3.35l-.91-.68,0-2.44-1.36-1,4.4-17.29.4-.06c.12.8.44,1.16,1,1.08l.11-2-.34.45-.4.06-.23-1.59.11-2.05.46.34.39-.06-.45-.34-.06-.39.57-1.71.4-.06.45.34.4-.05-.06-.4c-.08-.53-.51-.74-1.31-.63l1.19-5.85,1.59-.23L72,495l.06.4A10.65,10.65,0,0,1,77,493Zm-9.07,18.77-.17,1.65.4-.06.57-1.7Zm.91-2.16-.34.46.11.79.4-.05.23-1.25Zm2.61,1.25-.16,1.65.39-.06L72,512l-.17-1.2Zm1.25-5.46-.4,2.9-.45-.34-.4.06.63,1.53.4-.06.67-3.75-.06-.4Zm3.23-2.9-2,8.81.79-.11c2.65-.39,4-1.39,4-3l-2.45-5.74ZM74.83,512l0,.4.8-.12c2.35-.61,3.48-1.18,3.41-1.71l-.4.06Zm6.83,8,.79-.12.35,2.39-.4.06Zm2.16,3.75.12.79,1.13-.57-.11-.79Zm3.81-1.77.11.79.63,1.54.4-.06-.12-.8L88,521.88Z"/><path d="M104.76,489.61l.07.8-1.19.17,0,.4.4-.06,7.52-1.49,1.59-.23,0,.4-.71.92.43.34.1.8c.15,1.38-.17,2.24-1,2.57l.55,1.14-.3,1.26-.43-.34-.4.06c-3.68.72-5.51,1.25-5.47,1.6l-.46-.34q-6.64,2.06-6.33,5l.35,3.2,9.45-2.18.46.34,0,.41-2,.28,0,.4c1.32-.19,2,0,2,.52l.06.4c.14,1.33,0,2-.58,2.11l-2.38.35,0,.4,2.78-.41.1.8q.07.69-9.66,4.24l.07,4.46.45.34.06.39-.36.46,0,.41.52,1.14-.39.06.52,1.14q.38,1.67-1.89,6.58l-3.24.06,0-4.06A1.33,1.33,0,0,1,94,523.17l0-.12q.47-1.09-.36-12.75l.79-.11-.43-.35.06-3.25.43.34.4-.06,0-4.06-.15-1.6c-1.33.19-2,0-2.11-.51l.67-1.31c-1.06.15-1.62-.17-1.69-1-.27-2.39,0-3.65.79-3.76a1.84,1.84,0,0,0,1.77-2.29l.4-.06.43.35.73-.92,1.19-.17,1.32,1Zm-10,24.18.47,4.4.4-.06-.47-4.4ZM97,525.05l.16,1.6.4-.06L97.4,525Zm6-28.7,0,.4.4-.06,7.84-1.94,0-.4-1.23-.23-.36.46-.4.05-.43-.34Zm3.11-4.91,0,.4,1.19-.18,4.35-1-.06-.4-2.39.35Z"/><path d="M118.16,488.7c.53-.08.91.68,1.14,2.27l.8-.11,1.08-1,.45.34,1.23,22.56q2.36-1.56,13.12-4.74l.4-.05.06.39Q122.84,512.68,123,514l4.21-1.82.05.4,7.33-2.69.06.4.34-.45.4-.06.45.34,1.93-.69,1.59-.23h2.85l0,.4c.12.79-1.78,1.74-5.68,2.85l.06.4.34-.46.4-.06h2.84l.34-.46.17,1.2-12.66,5.07-7.9,4.39-1.19.18-1.88-1.76-.4.05,0-.39c-.1-.67.37-1.15,1.42-1.43l-.18-1.19-1.42-1.42-1-18.13.39-.05.23,1.59v2.84l.79-.12,0,5.29.45.34-.17,1.65.29,2,.4-.06-1.46-21.31c.53-.08.74-.51.63-1.31l.34-.46Z"/><path d="M158.94,483.05l2.11,1.06c-.22,2.43-1.08,3.71-2.55,3.83l-10.33,2,.07.8,2-.14,2.37-.59.44.39.4,0,2.78-.64.8,0,0,.4L148,492.35l0,5.25.4,0,10.69-2.43.41.37,0,.4-.8,0,.06.4,2.82.21,0,.4q-.56,2.36-10.9,5.25l-4,.72.43.35L146,508.62l-.4.05-.28-3.61-.4,0,0,5.64q11.69-3.32,16.64-3.7l2,.26.09.8-.8.07.41.37.11,1.2c-.62,1.11-2.19,1.77-4.69,2l0,.4,3.21-.25,0,.81L143.88,518l-.4,0c-1.32-.1-2-.42-2.1-1V517l-.1-1.2.47-4.46-.43-.37.8-.09.14,2h.41c0-1.35.18-2,.66-2.06l-.44-.39-.29-4-.81,0-.25,2.05.39-.44.4,0,.18,2.41h-.4l-.1-1.18-.4,0,.07.8-.41,0-.06-.8.29-6.9-.4,0,.63-2.05-.43-.37,0-.4-.1-6.84.44.37.4,0-.07-.8-.55-2,.12-3.65-.1-1.21h.4l.44.37.36-.43H143l.43.34.37-.44,1.2-.07Zm-17.4,20.26.21,2.81.4,0-.21-2.79Zm13.2-1.38.39-.06v.41L148,504l-.44-.39,0-.38,3.58-.68,0,.4Z"/><path d="M160.69,482.72c3.18-.46,4.93.38,5.24,2.5l.39-.06-.17-1.19.8-.12a75.21,75.21,0,0,1,4.62,12.33l-.4.06.46.34.51,3.58.8-.12-.34.46.29,2,.39-.05a57.52,57.52,0,0,1,4.82-11.66l.45.34.63-1.31-.4.06-.68.91-.06-.4,3.69-5.4.79-.12,1.82,1.36-1.64,2.68,1.19-.18c-.12-.82.54-1.87,2-3.13l.17,1.2c-1.05.28-1.52.75-1.42,1.42l.79-.11a1.08,1.08,0,0,1,1-1.37l.17,1.19q-1.86,1.5-4.93,8l-6.18,16.32-.79.11-.46-.34c-.79.12-1.11.7-1,1.76l-.8.12a2.48,2.48,0,0,1-3.18-2.38l.22-1.25-.68.91.18,1.19.45.34.06.4-.34.45-.8.12-.68-1.93.22-1.25-.39.05.34-.45-.35-2.39q-3.65-21.81-5.94-21.47l.22-1.25ZM166,494.14l.28,2,.4-.06-.29-2Zm.85,3.12.64,4.38.39-.06-.63-4.37Zm7.22-.63.06.4-1,1.76,0-.4Zm.17-1.65.4-.06.17,1.2-.34.45-.4.06-.06-.4Zm.25,13,.45.34.4-.06.45-2.5C175.26,505.92,174.83,506.66,174.49,507.94Zm3.6-20,.06.4-2.89,5.29-.06-.4A14.54,14.54,0,0,1,178.09,487.93ZM176,504.47l.06.4,1-1.37-.05-.4Zm4.46-19.73.06.4L179.17,487l-.4.06A3.62,3.62,0,0,1,180.47,484.74Zm1.15,5.11-.91,2.17.4-.06,1-1.77,0-.39Z"/><path d="M207.34,476.06l2.11,1.06q-.33,3.64-2.55,3.83l-10.32,2,.07.8,2-.14L201,483l.44.38.4,0,2.77-.64.81,0,0,.4-9.1,2.29v5.25l.41,0,10.68-2.43.41.37,0,.4-.81.05.06.4,2.82.21,0,.4q-.54,2.36-10.9,5.25l-4,.72.43.35-1.19,5.33-.4.05-.28-3.61-.4,0,0,5.64Q205,500.42,210,500l2,.26.09.8-.8.07.41.37.1,1.2q-.93,1.67-4.68,2l0,.4,3.21-.25.05.81-18.12,5.38-.4,0c-1.32-.1-2-.42-2.1-1v-.06l-.1-1.21.48-4.46-.44-.37.8-.09.15,2h.4c0-1.35.19-2,.66-2.06l-.44-.39-.29-4-.8,0-.26,2.05.39-.44.4,0,.19,2.41h-.41l-.1-1.18-.4,0,.07.8-.4,0-.07-.8.29-6.89-.4,0,.64-2.05-.44-.37,0-.4-.11-6.84.44.37.4,0-.07-.8-.55-2,.12-3.65-.1-1.21h.41l.43.37.37-.43h.4l.43.34.37-.44,1.21-.07Zm-17.4,20.26.21,2.81.4,0-.21-2.79Zm13.2-1.38.4-.06v.41l-7.1,1.76-.44-.39,0-.37,3.58-.69,0,.4Z"/><path d="M217.8,474.34l4.77-.69q8.58.36,9.39,6l.34,2.39-3.17,6.14.4-.06,3.46-4.15.11.79c-.92,3.23-2.35,5.46-4.31,6.72l-2.27,1.14.23,1.59q.87-.14,9.85,9.13a7.74,7.74,0,0,1,3.64,2.73l.06.39-2.22-1.3.06.4c1.53,1.21,2.34,2.17,2.44,2.89l-.39.06-1.82,1.48-.4.06-1-1.08-.34.45-.4.06q-8.9-5.35-13-11.52l-2.56-3.69c-.93.14-1.24,1.81-.9,5,.55,2.62.65,4.26.3,4.9-.69.75-.73,1.41-.12,2l.12.8-1.2.17c-.53.08-.87-.41-1-1.48l-.4.06c.15,1.06-.29,1.53-1.33,1.41L214,505l-.05-3.7-.23-1.59.77-11.48.4-.06.23,1.59.4-.06.78-8.64c-.53.08-.72.65-.56,1.71l-.4.06-.12-.8-2.38.35-.06-.4c-.08-.53.66-1,2.21-1.54L215,480l-.8.12-2.27,1.14-.4.06c-.08-.53.42-.88,1.48-1l-.06-.4c-1.06.16-1.65-.16-1.76-1Zm-3.16,17.51.23,1.59.4-.06-.23-1.59Zm.05-5.29.4-.06.23,1.59-.4.06Zm.28-3.69.4-.06.17,1.19-.17,1.65-.4.06-.17-1.2Zm5.29,5.73.4-.06q5.82-3.9,7.83-7.63l-.11-.79q-.19-1.37-5.18-2.1l-2.27,1.14Zm6.52-11.1c.71,1.13,1.33,1.72,1.88,1.76l-.11-.79Zm1.94,5-1.58,3.08.4-.06,1.64-2.68-.06-.39Zm-.42,19.56.06.39,1.82,1.36C229.49,502.69,228.86,502.1,228.3,502.06Zm1.22-22.51-.11,2,.39,0,.34-.46-.23-1.59Zm1.17,25,.06.4,1.76,1-.06-.39Zm2.13-21.83.79-.11-.22,1.25-.4.06Z"/><path d="M242.18,471.17c.06.81.61,1.13,1.67,1l1,1.49-.36.45.39,0a75,75,0,0,0-.67,20l.21,2.41.45.34,0,.4-.37.46.4-.06-.36.46.63,2.75.07.8c-1.17,1.92-1.72,3.36-1.65,4.3l-1.59.23-2-.52.16-2.86-1.76-1.37-.13-6.08-.64-7.21.7-1.32-.14-1.61-.43-.34,0-.4.8-.12,0-.4-.44-.34.53-7.79-.4.06.36-.46-.22-2.41-.44-.34,0-.4Zm-3.49,15.53.23,2.4.4-.05-.23-2.41Zm.1-3.67.2,2.41.4-.06-.21-2.4Zm0-4.06.26,2.8.4-.06-.26-2.8Zm2.1,23.65.17,2,.71-.92-.08-1.2Z"/><path d="M252.55,469.72l3.13,2c-.11-.8.09-1.23.62-1.31l.4-.06,7.64,13.52.11.79-.4.06-1.14-2.27-.39.06.11.79,3.76,6.36.4,0a205,205,0,0,1,1.47-22.26l1.31.62,1.13-.57,2.56.85.06.4c-.8.11-1.12.7-1,1.76l.4-.06.46.34.39-.06.12-2,.79-.12.06.4-.34.46.45.34.06.4q-1.67,9.62-1.57,27.14l-.8.12-.12-6.48c-.53.07-1,2.71-1.3,7.9a4.53,4.53,0,0,1-2.61,1.59l.12.8-.4.06q-.12-.79-1.71-.57l-.4-2.78q-.26-1.8-10.83-18.74l-.4.06a170.12,170.12,0,0,0,0,19.49l-.46-.34c-1.52.7-2.22,1.48-2.1,2.33l-.79.12a11.94,11.94,0,0,1-1.54-5.06l-.4.06.51,3.58-.79.11-.69-1.93q-1.56-10.8,1-26.94Zm-4.13,10.75.06.4.45.34-.34.46.12.79.39-.06.17-1.64-.45-.35Zm16,4.18c.69-.1,1.37.89,2.05,3l.06.39-.4.06Z"/><path d="M291.48,464.58l.41.35.4-.06v-.41q6.83.74,6.94,3.87l.86,2.32-.8.11c0-1.07-.33-1.57-.86-1.5l-.4.06.5,2v.41l-.8.11c-.53.08-.81-.29-.83-1.1l-.38.46-.4.06a6.31,6.31,0,0,0-4.05-1q-4,.57-8,9.69l-.63,4.56q.18,5.37,5.44,6.93l0,.8-.79.12v.4l.79-.11q2.83-.4,7.3-8.36v-.41l-.4.06a28.92,28.92,0,0,1-5,6.4l-.39.06,4.19-5.88-2.79.4c0-.54-.42-.75-1.21-.64l-.41-.35v-.4c0-.54,1.28-1.13,3.92-1.78l0-.81-.39.46-2.38.34-2.49-2.48.39-.46,0-.4,4.41-.23,10.29-2.71V475c-1.33.19-2,0-2-.52l.4-.06.41.35.38-.47.4,0c2.94.4,4.42.86,4.43,1.39l0,.4-.38.46v.4l1.59-.22,0,.8-.4.06-6.32,1.73v.4l.4-.06,3.57-.92,0,.81q-4,.57-3.87,3.81l-1,6.64.43.34v.4l-.35,2.08.53,3.18-.75.92.39.35a2.25,2.25,0,0,0-1.49,2.24l-1.2.18c-.53.07-.84-1.1-.93-3.52l-.4,0,.09,2.83-1.19.17-.07-2-.5-2.77-.8.12a8,8,0,0,1-4.33,2.25l-2,.29-.79-.7,0-.4.8-.12v-.4q-8.26,1.19-9.74-4.28A28.21,28.21,0,0,1,278,486a26.55,26.55,0,0,1-.28-3.23l0-.81a25.64,25.64,0,0,1,1.7-8.37l.4-.05,0,.81-1.09,3,0,.4.4-.06c-.09-2.46,2.06-5.88,6.42-10.27l.4,0V467l-.4.06-1.18.58C285,466.2,287.33,465.18,291.48,464.58Zm-10.15,6.74v.41l-1.53,1.85v-.41Zm2.29-3.17.39-.06-2.68,3.23v-.4ZM290,490.38l.4-.06-.75.92-.4.06Zm-.4-22.28,0,.4,2.78-.4,0-.4Zm.19,27.59,0,.4,2-.29,0-.4Zm2.73-1.61,3.13-2.08,0-.81-.39.06Zm7.34-18.93,1.59-.23-.77.92Z"/><path d="M63.36,449.15l.4,0,.17,1.19.4-.06-.12-.79,1.59-.23c.53-.08.91.68,1.14,2.27l1.25.22c-.11-.79.1-1.23.63-1.3l.45.34.06.39-.44,11,5.91-1.26,4-.57.11-2.05-.46-.34.8-.11-.8-2.73-.06-.4.8-.11-.46-.34-.11-.8.79-.11-.11-.8-.8.12-.06-.4.8-.12-.46-.34-.4-2.78.46.34.39-.06L79,447.71l-.46-.34-.06-.4,1.2-.17,0,13.81q.8-.12.49-13.47l1.54-.63c.57,2.09,1.12,3.09,1.65,3l.4-.06c-.12-.79.09-1.23.62-1.3l.4-.06q0,14-1.32,33.08l-.4.06-.45-.34.34-.46-.46-3.18-.4.06-.62,4.15-1.19.17c-.53.07-.91-.68-1.14-2.27l-.4.05.23,1.6-.4.05q-.8.12-1-1.08c-.28-1.91-.14-6.54.43-13.86l-.4.05-5.11,1.15-3.64.12q.18,9.72-.55,13.07l-1.19.17c-.53.08-.95-.94-1.26-3.07l-.39.06v2.84l-.91-.68-.17-1.19.34-.45-.06-.4-.45-.34-.4.05-.34.46-.4.06-.63-1.54q-.34-13.65.77-20l.4-.06-.46-.34-.17-1.2.56-4.54-.4,0Zm-.24,29.27.4-.05.28,2-.4.05Zm.43-13.86.23,1.59.4-.06L64,464.5Zm.22-4.1-.11,2.05.06.4.4-.06.17-1.65-.12-.79Zm.11-2,.23,1.59.4-.06-.23-1.59Zm.11-7.73.4,2.78.4-.06-.41-2.78Zm.06,3.24.06,3.24.11.79.4-.06-.06-3.24-.12-.79ZM78.9,469.65l.23,1.59.4-.06-.23-1.59Zm.34-3.3,0,2.44.06.4.39-.05.11-2.05-.11-.8Zm3.08,7.27-.11,2.05.17,1.19.4-.06V474l-.06-.4Z"/><path d="M93.47,445.19c.06.8.61,1.13,1.67,1l1,1.48-.36.46.39-.06a75.05,75.05,0,0,0-.67,20l.21,2.4.45.34,0,.41-.36.45.4,0-.37.45.64,2.76.07.8q-1.75,2.88-1.65,4.3l-1.59.23-2-.52.17-2.87-1.76-1.37-.13-6.07-.64-7.22.7-1.32-.14-1.6-.43-.34,0-.41.8-.11,0-.4-.44-.35.53-7.79-.4.06.36-.46-.22-2.4-.44-.34,0-.41ZM90,460.72l.23,2.4.4-.06-.23-2.4Zm.1-3.67.2,2.41.4-.06L90.47,457Zm0-4.07.26,2.81.4-.06-.26-2.8Zm2.1,23.66.17,2,.7-.91L93,476.52Z"/><path d="M117.73,441.54l2.11,1.06c-.22,2.44-1.07,3.71-2.55,3.83l-10.32,2,.07.8,2-.14,2.38-.58.44.39.4,0,2.77-.64.81,0,0,.4-9.1,2.29,0,5.25.4,0,10.68-2.43.42.37,0,.41-.81,0,.06.4,2.83.21,0,.4q-.54,2.35-10.9,5.25l-4,.72.43.35-1.18,5.33-.4.05-.29-3.61-.4,0,0,5.64q11.67-3.32,16.64-3.69l2,.25.09.8-.8.07.41.37.1,1.2q-.93,1.66-4.68,2l0,.4,3.21-.25.05.81-18.12,5.39-.4,0q-2-.15-2.1-1v-.07l-.1-1.21.48-4.46-.43-.37.79-.09.15,2h.41c0-1.35.18-2,.65-2.06l-.43-.39-.29-4-.81,0-.25,2.05.39-.44.4,0,.18,2.42h-.41l-.1-1.17-.4,0,.07.8-.4,0-.07-.81.3-6.89-.41,0,.64-2-.44-.37,0-.4-.1-6.84.43.37.4,0-.06-.8-.55-2,.12-3.65-.11-1.2h.41l.43.36.37-.43h.4l.44.34.36-.44,1.21-.07Zm-17.4,20.26.22,2.81.4,0-.21-2.79Zm13.2-1.38.4-.06v.41l-7.1,1.76-.44-.39,0-.37,3.58-.69,0,.4Z"/><path d="M128.19,439.82l4.77-.69q8.58.36,9.39,5.95l.34,2.39-3.17,6.14.4-.06,3.46-4.15.11.8q-1.38,4.83-4.31,6.71l-2.27,1.14.23,1.59q.87-.12,9.85,9.14a7.76,7.76,0,0,1,3.64,2.72l.05.4-2.21-1.31.05.4c1.53,1.21,2.35,2.18,2.45,2.89l-.4.06-1.81,1.48-.4.06-1-1.08-.34.46-.4.05q-8.9-5.36-13-11.51l-2.56-3.69q-1.41.19-.9,5c.55,2.62.65,4.26.3,4.9-.69.75-.73,1.41-.12,2l.11.8-1.19.17c-.53.08-.87-.41-1-1.47l-.39.05c.15,1.06-.29,1.53-1.33,1.41l-2.09-2.08-.06-3.7-.23-1.59.78-11.48.4-.06.23,1.59.4-.05.78-8.64c-.53.07-.72.64-.57,1.7l-.39.06-.12-.8-2.39.35,0-.4c-.08-.53.66-1,2.21-1.54l-.06-.4-.79.12-2.27,1.14-.4.06c-.08-.53.41-.87,1.48-1l-.06-.4q-1.59.24-1.77-1ZM125,457.33l.23,1.59.4-.06-.23-1.59Zm0-5.29.4-.06.23,1.6-.4.05Zm.28-3.69.4-.06.17,1.19-.17,1.65-.4.06-.17-1.19Zm5.29,5.73.4-.06q5.82-3.9,7.83-7.63l-.11-.79c-.13-.91-1.86-1.6-5.18-2.1l-2.27,1.14ZM137.17,443c.7,1.12,1.33,1.71,1.88,1.76l-.12-.8Zm1.94,5-1.59,3.07.4-.06,1.65-2.67-.06-.4Zm-.42,19.55.05.39,1.82,1.37C139.88,468.17,139.25,467.58,138.69,467.54ZM139.9,445l-.11,2,.4-.05.34-.46L140.3,445Zm1.18,25,0,.4,1.77,1-.06-.4Zm2.12-21.82.8-.12-.23,1.25-.39.06Z"/><path d="M162.73,434.92l1.59-.22,1.31.62,2.73-.8q6.9-1,13.87,6.12l2.57,3.69-.34.45.68,1.93.29,2q1.47,10.23-14.47,17.93l-3.92,1c-.09-.67-.68-1-1.76-1l.23,1.59-1.19.17L164,466l-.45-.34.34-.45-.06-.4c-1.75-.86-2.68-1.68-2.79-2.44q-1.41-18.19.19-26.83l.4-.05.45.33Zm-1,4.21L161.39,451l.06.4.4-.06.38-11.42-.12-.79Zm1.47,27,.39-.06.06.4-.68.91-.4.05-.05-.39Zm5.3-25.13c.08.53-.41.87-1.48,1a131,131,0,0,0,0,17.05q2.31-.33,11.36-5.7l-.06-.39-.79.11a9.78,9.78,0,0,0,2.2-7.22l-.17-1.19q-.63-4.38-6.71-4.31Zm-1.27,22.11.57,1.13.79-.11.68-.91-.05-.4-.4.06-1.14.57Zm3.12-.86.06.4,1.59-.23,1.87-1.08,0-.4-.4.06Zm6.11-22.4.05.4,1.71.56-.06-.4-1.31-.62Zm2.69,18.69c.62-.18,1.43-1.11,2.45-2.78l-.06-.4Zm1.36-7.5-.57,1.71.4-.06.57-1.71Zm.33-6.14.29,4.83.8-.11-.18-1.2.17-1.65-.68-1.93Zm3.24,2.78L183,454.33l.06.4.4-.06,1.13-6.25-.12-.8Z"/><path d="M205.59,428.86l2.11,1.05q-.33,3.66-2.55,3.84l-10.32,2,.07.8,2-.14,2.38-.58.44.39.4,0,2.77-.64.81-.05,0,.4-9.1,2.3v5.25l.41,0L205.71,441l.41.37,0,.4-.81,0,.06.4,2.82.22,0,.4q-.56,2.34-10.9,5.25l-4,.72.43.34-1.19,5.33-.4.06-.28-3.61-.4,0,0,5.63q11.67-3.3,16.64-3.69l2,.26.09.8-.81.06.42.38.1,1.2q-.93,1.66-4.69,2l0,.41,3.21-.25.05.8-18.12,5.39-.4,0q-2-.13-2.1-1v-.07l-.1-1.2.48-4.47-.44-.36.8-.1.15,2h.4c0-1.35.19-2,.66-2.05l-.44-.39-.29-4-.8.05-.26,2,.39-.44.4,0,.18,2.41h-.4l-.1-1.18-.4,0,.07.81-.4,0-.07-.8.29-6.9-.4,0,.64-2-.44-.36,0-.4-.11-6.84.44.36.4,0-.07-.8-.55-2,.12-3.65-.1-1.2h.41l.43.37.37-.44h.4l.43.34.37-.43,1.21-.08Zm-17.4,20.26.21,2.81.4,0-.21-2.78Zm13.2-1.38.4-.06v.4l-7.11,1.77-.43-.39,0-.38,3.57-.68,0,.4Z"/><path d="M227,425.52c.53-.07.91.68,1.14,2.27l.79-.11,1.08-1,.45.34,1.23,22.57q2.35-1.56,13.12-4.74l.4-.06.06.4q-13.59,4.27-13.41,5.59l4.21-1.83,0,.4,7.33-2.68.06.4.34-.46.4-.06.45.34,1.93-.68,1.6-.23h2.84l0,.4q.18,1.2-5.67,2.85l.05.4.34-.45.4-.06h2.84l.34-.45.18,1.19L237,455l-7.89,4.39-1.2.17L226,457.75l-.39.06-.06-.4c-.1-.67.37-1.14,1.42-1.42l-.17-1.2-1.43-1.41-1-18.13.4-.06.23,1.59v2.84l.8-.11,0,5.28.45.34-.17,1.65.29,2,.4-.06-1.45-21.31c.53-.07.73-.51.62-1.31l.34-.45Z"/><path d="M261.35,418.94c.29.77,1.41,1,3.36.74l5.19,13.46,2.78-.4.06.39-2.33.75.06.39c.8-.11,1.23.1,1.31.63l3.18-.46.06.39q.12.9-3.75,2.17l1.14,2.27-.23,1.25.75,2.33-.34.46.39-.06-.34.46,1.09,4.71.35,2.39-.46-.34-.4,0,2.06,5.8-.8.11c-.11-.79-.44-1.15-1-1.07l.06.39.57,1.14-.4.06-.45-.34-.4.05c.12.8-.09,1.23-.62,1.31l-3-6.47-.4.05.23,1.6-.39.05-1.49-4.66,1.31.63-.06-.4c-.56-2.36-1.13-3.49-1.71-3.41l.34-.45-.17-1.2-.79.12.17,1.19-.4.06-.23-1.59.34-.46-.4.06-.34.46-.23-1.6.4-.05.45.34.4-.06-.45-.34-.35-2.39-8.46,3.26.11.79,2.67-1.2,1.65.17,1.93-.68.12.79q-8.15,2.7-7.78,5.19-.42,4.51-1.58,5.91l.11.79-1.19.18-.46-.34-.39.05.05.4-1.31-.62.46-2.5-.4.05c-.8.12-1,1.24-.74,3.36l-.91-.68.06-2.45-1.37-1,4.41-17.28.4-.06q.17,1.2,1,1.08l.12-2.05-.35.46-.39.06-.23-1.6.11-2,.45.34.4-.06-.45-.34-.06-.4.56-1.7.4-.06.46.34.4-.06-.06-.4c-.08-.52-.52-.73-1.31-.62l1.18-5.85,1.6-.23-.35.45.06.4A10.54,10.54,0,0,1,261.35,418.94Zm-9.06,18.77-.17,1.65.4-.06.56-1.7Zm.9-2.16-.34.45.12.8.4-.06.22-1.25Zm2.62,1.25-.17,1.65.4-.06.34-.46-.17-1.19Zm1.24-5.46-.39,2.9-.46-.34-.39.06.62,1.53.4-.06.68-3.75-.06-.4Zm3.24-2.91-2,8.82.8-.12q4-.57,4-3l-2.45-5.73Zm-1.07,9.5.06.4.8-.12c2.34-.61,3.48-1.18,3.4-1.71l-.4.06Zm6.83,7.94.8-.11.34,2.39-.39.05Zm2.17,3.75.11.8,1.14-.57-.11-.8Zm3.8-1.76.12.79.63,1.53.4-.05-.12-.8-.63-1.53Z"/><path d="M289.45,414.88c.29.78,1.41,1,3.36.74L298,429.08l2.78-.4.06.4-2.33.74.06.4c.79-.12,1.23.09,1.31.62l3.18-.46.06.4q.12.89-3.75,2.16l1.14,2.28-.23,1.25.75,2.33-.35.45.4-.06-.34.46,1.09,4.71.34,2.39-.45-.34-.4.06,2.06,5.79-.8.12c-.12-.8-.44-1.16-1-1.08l.06.4.57,1.13-.4.06-.45-.34-.4.06c.11.79-.09,1.23-.62,1.3l-3-6.47-.4.06.23,1.59-.4.06-1.48-4.66,1.31.62-.06-.4c-.56-2.35-1.13-3.49-1.71-3.4l.34-.46-.17-1.19-.8.11.18,1.19-.4.06-.23-1.59.34-.45-.4,0-.34.46-.23-1.59.4-.06.45.34.4-.06-.45-.34-.35-2.38-8.46,3.25.11.79,2.67-1.19,1.65.16,1.93-.68.12.8q-8.14,2.7-7.78,5.18-.42,4.53-1.58,5.91l.11.8-1.19.17-.46-.34-.4.06.06.4-1.31-.63.45-2.5-.39.06c-.8.11-1,1.23-.74,3.35l-.91-.68.06-2.44-1.37-1,4.41-17.29.39-.06c.12.8.44,1.16,1,1.08l.11-2-.34.45-.39.06-.23-1.59.11-2,.45.34.4-.05-.46-.35-.05-.39.56-1.71.4-.06.46.34.39,0-.05-.4c-.08-.53-.52-.74-1.31-.62l1.18-5.86,1.59-.23-.34.46.06.39A10.7,10.7,0,0,1,289.45,414.88Zm-9.06,18.77-.17,1.65.4-.05.56-1.71Zm.9-2.16L281,432l.12.79.39-.05.23-1.25Zm2.62,1.25-.17,1.65.4-.06.34-.45-.17-1.2Zm1.24-5.46-.39,2.9-.46-.34-.4.06.63,1.53.4-.06.68-3.75-.06-.4Zm3.24-2.9-2,8.81.8-.11c2.65-.39,4-1.39,4-3l-2.46-5.74Zm-1.07,9.49.06.4.79-.12c2.35-.61,3.49-1.18,3.41-1.71l-.4.06Zm6.83,7.95.8-.12.34,2.39-.39.06Zm2.17,3.75.11.79,1.14-.57-.12-.79Zm3.8-1.77.12.79.63,1.54.39-.06-.11-.8-.63-1.53Z"/><path d="M326.11,410.71l1.25.23.12.79-1.19.18,1,1.08c-.38,1.4-2.41,2.37-6.07,2.9l-2.73.8-.23,1.25.4-.05q-.78,3-1.1,26.14l1.94,5-.39.06q-.9.12-2.17-3.75l-.18-4-.05-.39-.4,0,.11.8c-.79.11-1.15.44-1.07,1l.05.4,1.72,6.24.05.4-.79.12-1.76-1-.34.46-.4.06a15,15,0,0,1-2.46-5.74l.46.34.4-.06-1.2-2.67,1.14-.57-.29-2-.8.12,0-.4c.79-.11,1.15-.44,1.07-1l-.05-.39-.8.11c-.3-2.12-.06-3.24.74-3.35l-.75-5.17c.37-.44.49-3.3.38-8.59l-2.72.8-5.63.41-.06-.4,1.94-.68,0,.39.34-.45,6-.86-.17-1.2-6.25,1.72-.46-.34-.4.06-2.32.74-1.31-.63.11-2-.46-.34q-.28-2,4.49-2.68ZM312.4,436.65l.47,8.87.79-.12-.68-1.93-.12-.8.62-1.3-.39.05.34-.45-.06-.4-.46-.34-.05-.4.56-1.7-.63-1.54Zm11.5-24.4.06.4,1.59-.23-.06-.4Z"/><path d="M336.15,409.41q1.17.64,6.81-.17l0,.4-2.79.4,0,.4q5-.72,6.56,1.49l.07.8-2,.29,0,.4h2.82l0,.4-2.39.34,0,.41q1.19-.18,1.26.63a18.25,18.25,0,0,0-11.91,7l0,.41A20.48,20.48,0,0,1,348.32,430l0,.4q-.72,5.37-6.74,10.72l-2.38.75,0,.4.8-.11q.1,1.08-7,3.44l-.07-.8,2-.29v-.4q-2.55.36-5-2.12a3.6,3.6,0,0,1-2.28-3.23c0-.16,0-.32-.05-.5l1.13-1,1.26.63.79-.12q11-3.37,10.55-8.83c-3.36-1.14-5.55-1.63-6.57-1.49l0,.4-4.14-1,.43.34.09.8c-3.65-2-5.54-3.58-5.64-4.87l2.3-6,1.86-1.89.07.8Zm-3.87,11.52,0,.4,6.39-5.39,3.11-1.26-.06-.8-.8.11A26.11,26.11,0,0,0,332.28,420.93Zm3.07,22.3,0,.4,1.59-.23,1.95-.69-.06-.4-.39.06Zm1.48-6.31.4-.06L338,436l-.4.05Zm2.64,2.87,0,.4.4-.06,1.49-1.43Zm4.52-3.9-1.42,2.23.4-.05,1.42-2.24Z"/><path d="M370.71,404.27l1.25.23.12.79-1.19.18,1,1.08c-.38,1.41-2.41,2.37-6.07,2.9l-2.73.8-.22,1.25.39-.05q-.78,3-1.1,26.14l1.95,5-.4.06q-.9.12-2.17-3.75l-.17-4-.06-.4-.4.06.12.79c-.8.12-1.16.44-1.08,1l0,.4,1.72,6.25.06.39-.8.12-1.76-1-.34.46-.4.06a14.75,14.75,0,0,1-2.45-5.74l.45.34.4-.06-1.2-2.67,1.14-.57-.29-2-.79.11-.06-.4c.79-.11,1.15-.44,1.08-1l-.06-.39-.8.11c-.3-2.12-.06-3.24.74-3.35l-.75-5.17q.56-.66.39-8.59l-2.73.8-5.63.41-.05-.4,1.93-.68.05.39.34-.45,6-.86-.17-1.2-6.25,1.72-.46-.34-.39.06-2.33.74-1.31-.62.11-2.05-.46-.34q-.28-2,4.49-2.68ZM357,430.21l.47,8.87.79-.12-.68-1.93-.12-.79.63-1.31-.4.05.34-.45-.06-.4-.45-.34-.06-.4.56-1.7-.62-1.54Zm11.5-24.4.06.4,1.59-.23-.06-.4Z"/><path d="M390.05,402.22l2.11,1.06c-.22,2.44-1.08,3.71-2.56,3.83l-10.32,2,.07.8,2-.14,2.37-.58.44.39.4,0,2.78-.64.8,0,0,.4-9.11,2.29,0,5.26.4,0,10.69-2.42.41.37,0,.4-.8,0,.06.4,2.82.21,0,.4q-.54,2.36-10.89,5.26l-4,.71.43.35-1.19,5.33-.4.06-.28-3.62-.4,0,0,5.63q11.69-3.31,16.64-3.69l2,.25.09.8-.8.07.41.37.11,1.21c-.63,1.1-2.19,1.76-4.69,2l0,.4,3.22-.25,0,.81L375,437.22l-.4,0q-2-.15-2.1-1v-.07l-.1-1.21.47-4.46-.43-.37.8-.09.14,2h.41c0-1.35.18-2,.66-2l-.44-.39-.29-4-.81.05-.25,2,.39-.44.4,0,.18,2.41h-.4l-.1-1.18-.4,0,.07.8-.41,0-.06-.8.29-6.9-.4,0,.63-2-.43-.37,0-.4-.1-6.84.44.37.4,0-.07-.81-.55-2,.12-3.65-.1-1.2h.4l.44.36.36-.43h.41l.43.34.37-.43,1.2-.08Zm-17.41,20.26.22,2.81.4,0-.21-2.79Zm13.2-1.38.4-.06v.41l-7.1,1.77-.44-.39,0-.38,3.58-.69,0,.4Z"/><polygon points="318.88 462.59 321.57 492.23 339.37 473.12 318.88 462.59"/><path d="M15.37,503.11l.38-.38h.38l.38.38-.38.38v.38l2.29,3.44v.38Q17.42,507.69,15.37,503.11ZM16.13,518l3.44-.38c0-.51-.77-.89-2.29-1.15v-.38l1.52-.38,6.11,1.14-3.05-4.2v-.38l4.2,4.58h.38L20,508.07l.38-.38q-4.2-5.15-4.2-6.87v-.39l1.53-.38,3.05,3.06v-.38a2.46,2.46,0,0,1-1.53-2.3l.39-.38h-.39l-.38.38-.38-.38v-1.14l1.15-.38q1.34,2.87,9.92,13.36a113.85,113.85,0,0,0,15.28-9.16h.76l2.67.38-.38.38v.38l1.53.38v1.53h-.76v.38h.76v.77q-1.35,0-14.13,8.4l-2.29.76.38,1.91c6.13.33,9.94,1.13,11.46,2.4h.38l-.38,3.82H43.62L41,523.84c0,.76-.76,1.14-2.29,1.14-2.55-.41-3.82-.83-3.82-1.25l-.38.38q-10.51-1.15-12.6-2.29l-1.15.38-3.05-1.15h-.38l-.39.39h-.38v-.77h2.67v-.38L18,519.91l-.38.38h-.38C16.51,520,16.13,519.27,16.13,518Zm2.29-9.93v-.38L20,509.22v.38ZM20,510v-.38l1.91,2.29v.38Zm.38,11.07,2.29.39h1.53v-.39l-3.44-.38h-.38Zm1.15-16,1.14,1.52.38.39h.38v-.39L22.24,505l-.38-.39h-.38Zm21.76,6.49v-.38L44.39,510v.38ZM44.39,510c0-.64,1.27-1.28,3.81-1.91h.39v.38Z"/><path d="M16.71,491.9c.77.06,1.15-.42,1.15-1.44l1.53-.69.38.4v-.38a70.73,70.73,0,0,0,18.71,3.34l2.29.14.38-.38.38,0,.39.4v-.38l.38.41,2.67-.23.76.05c1.65,1.36,2.92,2.07,3.82,2.13v1.53l-.76,1.84-2.67-.54-1.53,1.46-5.73-.7L32,498.5l-1.15-.83-1.53-.09-.38.36-.38,0v-.76l-.38,0-.38.36-7.26-1.55v.38l-.38-.4-2.29-.11-.38.36-.38,0Zm6.88,4.22,2.67.14v-.39l-2.67-.13Zm3.82.59,2.29.13v-.38l-2.29-.14Zm3.43.58,2.29.11V497l-2.29-.11Zm15.28.07,1.9.11-.76-.79-1.14-.09Z"/><path d="M15.91,471.26h1.9v-1.15H16.67v-1.53q31.26,3.69,31.26,7.73c.51,0,1.15,1.27,1.91,3.82l-.38.38v.38l.38,1.91-.38.38h.38q0,3.82-3.43,3.82l-1.15,2.68H44.12l.38-.39v-1.14h-.38c-3.31.12-5,.37-5,.76l-2.29-.76a3.61,3.61,0,0,0-1.14-2.29v-1.53L38,484v-.77h-.77l-.38.39h-.38l-.38-.39v-.76a1,1,0,0,0,1.14-1.14l2.68.38h1.14c1.53-.17,2.29-.55,2.29-1.15l-3.43-1.14.38-.39v-.76q0-1.71-21.72-4.29l-2.29-.38-.38-.38Zm17.9,6.58v-.38h1.52v.38Zm1.91.38v-.38c.76,0,1.14-.26,1.14-.76.51,0,.76.38.76,1.14l.39-.38h.38l.76.76v-.38l-.38-.38h.76l.39,1.14h-.39Zm1.52,9.93h1.91v-.38H37.24Z"/><path d="M15.37,446.42l.38-.39h.38l.38.39-.38.38v.38l2.29,3.44V451Q17.42,451,15.37,446.42Zm.76,14.89,3.44-.38c0-.51-.77-.89-2.29-1.15v-.38L18.8,459l6.11,1.14L21.86,456v-.38l4.2,4.58h.38L20,451.38l.38-.38q-4.2-5.14-4.2-6.88v-.38l1.53-.38,3.05,3.06V446a2.43,2.43,0,0,1-1.53-2.29l.39-.38h-.39l-.38.38-.38-.38v-1.14l1.15-.39q1.34,2.88,9.92,13.37A113.06,113.06,0,0,0,44.77,446h.76l2.67.39-.38.38v.38l1.53.38v1.53h-.76v.38h.76v.76q-1.35,0-14.13,8.4l-2.29.77.38,1.91c6.13.33,9.94,1.13,11.46,2.4h.38l-.38,3.82H43.62L41,467.15c0,.76-.76,1.14-2.29,1.14-2.55-.42-3.82-.84-3.82-1.25l-.38.38q-10.51-1.16-12.6-2.29l-1.15.38-3.05-1.15h-.38l-.39.38h-.38V464h2.67v-.38L18,463.22l-.38.38h-.38C16.51,463.34,16.13,462.58,16.13,461.31Zm2.29-9.93V451L20,452.53v.38ZM20,453.29v-.38l1.91,2.29v.38Zm.38,11.07,2.29.38h1.53v-.38L20.71,464h-.38Zm1.15-16,1.14,1.52.38.38h.38v-.38l-1.14-1.52-.38-.39h-.38Zm21.76,6.49v-.39l1.15-1.14v.38Zm1.15-1.53c0-.64,1.27-1.28,3.81-1.91h.39v.38Z"/></svg>