<svg id="Layer_1" data-name="Layer 1" xmlns="http://www.w3.org/2000/svg" viewBox="0 0 595.28 595.28"><defs><style>.cls-1{fill:#040707;}.cls-2{fill:#fff;}.cls-3{fill:#3c3c3b;}.cls-4{fill:none;}.cls-5{fill:#e21013;}</style></defs><title>rauwkost tv logo</title><polygon class="cls-1" points="560.57 526.38 106.73 591.92 106.73 133.56 556.64 201.77 560.57 526.38"/><polygon class="cls-2" points="489.62 506.35 157.47 541.17 157.47 184.3 486.63 223.92 489.62 506.35"/><path class="cls-3" d="M530.56,391.16l-16.45.37c-6.71,8.1-7.74,20.94.12,29.2l16.33.32Z"/><ellipse class="cls-2" cx="530.68" cy="406.11" rx="11.39" ry="14.93"/><path class="cls-3" d="M536.11,311.14l-23.75.53c-9.69,11.69-11.18,30.23.18,42.16l23.57.47Z"/><path class="cls-1" d="M450.69,181.46c0,21.8-33.64,24.59-73.64,24.59s-72.43-17.67-72.43-39.46,41.08-33.15,82.4-30.92C426.31,137.8,450.69,159.67,450.69,181.46Z"/><path class="cls-4" d="M226.53,291.92c-.2-.37-1-.63-2.26-.7l-22.75-1.28a2.1,2.1,0,0,0-.59,0v59.56c8.57-2.8,17-5.6,24.16-10.26.66-.43,1.31-.88,1.94-1.34v-43.6A5.26,5.26,0,0,0,226.53,291.92Z"/><path class="cls-4" d="M291.25,266.3c-.8-5.56-1.51-10.83-2.11-15.66q-.43-3.51-.77-6.22c-.24,1.75-.52,3.77-.85,6.09-.66,4.51-1.35,9.53-2.13,15.33-.72,5.43-1.55,11.2-2.47,17.14-.54,3.57-1.05,6.94-1.51,10.09a17.11,17.11,0,0,1,13.83,3.26l.2.15c-.53-4-1.12-8.21-1.75-12.81C292.86,277.65,292,271.8,291.25,266.3Z"/><path class="cls-4" d="M201.27,277.21l20.08,1.3c3.93.26,5.68-1.1,5.68-4.41V230.73a5.75,5.75,0,0,0-1.36-3.67c-.83-1.05-2.53-1.71-5.06-2l-19.09-1.93a1.2,1.2,0,0,0-.56,0,.44.44,0,0,0,0,.2V276.9a.53.53,0,0,0,0,.25A1.11,1.11,0,0,0,201.27,277.21Z"/><path class="cls-4" d="M258.65,338.24a134.45,134.45,0,0,0-14.5,6.2v13.38l-17.12-.2v-2.34a78.8,78.8,0,0,0-7.54,6.88,44.81,44.81,0,0,0-6.73,9.46c-2.79,5.09-7.12,7.77-11.81,7.88v52.33c0-.09.09-.19.13-.29.91-2,2.09-4.72,3.51-8,1.33-3.12,2.88-6.76,4.73-11.13l5.32-12.61,14.79-35.27,17.5.13L245.11,369c.77-1,1.55-2.08,2.36-3.11a59.85,59.85,0,0,1,8.73-9.37c.19-1.32.5-3.49.84-6.18C257.43,347.23,258,343.24,258.65,338.24Z"/><path class="cls-4" d="M316.26,337l.11.92c.56,4.61,1,8.47,1.4,11.61l6.87-10c.44-2.95,2.18-5.34,4.92-7.36V307.76c-4.22,1.34-8.51,2.61-12.84,3.82a19.7,19.7,0,0,0-3.42,1.28c.17,1.32.33,2.64.49,3.93C314.78,324.83,315.59,331.43,316.26,337Z"/><path class="cls-4" d="M275,338.51c-.2,1.36-.41,2.77-.61,4.23-.5,3.65-.9,6.57-1.25,9.18-.19,1.41-.31,2.36-.4,3l6.43,3.62c-1-5.46-2.09-10.92-3-16.39A12.78,12.78,0,0,0,275,338.51Z"/><path class="cls-4" d="M450,309.64c-.75.51-1.47,1.05-2.18,1.61.31,2.22.62,4.45.93,6.72Q449.41,313.53,450,309.64Z"/><path class="cls-4" d="M432.27,286.49c-.21,1.33-.45,2.86-.71,4.53.37-.52.74-1,1.13-1.54C432.53,288.4,432.39,287.39,432.27,286.49Z"/><path class="cls-4" d="M311.5,358.61h-.57c0,.25,0,.51.05.76Z"/><path class="cls-1" d="M195.64,351.25c1.76-.59,3.53-1.16,5.29-1.73V290a2.1,2.1,0,0,1,.59,0l22.75,1.28c1.24.07,2.06.33,2.26.7a5.26,5.26,0,0,1,.5,2.4v43.6c4-2.87,7.61-6.17,11.94-8.53q2.57-1.39,5.18-2.76V294.45a10.27,10.27,0,0,0-2.72-6.58,9.66,9.66,0,0,0-3.33-2.56,8.08,8.08,0,0,0,3.38-2.66,11.55,11.55,0,0,0,2.67-7V231a17.49,17.49,0,0,0-4.39-11.14c-3-3.67-7.54-5.86-13.53-6.52l-40.18-4.39-3.25-.36V357.1l3.27,0C188.07,354.75,191.26,352.71,195.64,351.25Zm5.29-127.86a.44.44,0,0,1,0-.2,1.2,1.2,0,0,1,.56,0l19.09,1.93c2.53.25,4.23.91,5.06,2a5.75,5.75,0,0,1,1.36,3.67V274.1c0,3.31-1.75,4.67-5.68,4.41l-20.08-1.3a1.11,1.11,0,0,1-.3-.06.53.53,0,0,1,0-.25Z"/><path class="cls-1" d="M244.15,357.82V344.44A95.81,95.81,0,0,0,227,355.28v2.34Z"/><path class="cls-1" d="M317.77,349.49c-.38-3.14-.84-7-1.4-11.61l-.11-.92c-.67-5.53-1.48-12.13-2.47-20.17-.16-1.29-.32-2.61-.49-3.93-4.18,2.08-6,5.46-5.39,10.64q2,17.56,3,35.1h.57Z"/><path class="cls-1" d="M274.34,342.74c.2-1.46.41-2.87.61-4.23-1.73-3.4-5-4.06-10.54-2.26q-2.91.94-5.76,2c-.69,5-1.22,9-1.61,12.12-.34,2.69-.65,4.86-.84,6.18,3.38-2.73,6.39-3.82,9.74-3.77l3,.05,3.76,2.11c.09-.65.21-1.6.4-3C273.44,349.31,273.84,346.39,274.34,342.74Z"/><path class="cls-1" d="M269.69,309.24a34.41,34.41,0,0,1,.71-6.83c1.34-5,5.82-8.34,11-9.34.46-3.15,1-6.52,1.51-10.09.92-5.94,1.75-11.71,2.47-17.14.78-5.8,1.47-10.82,2.13-15.33.33-2.32.61-4.34.85-6.09q.33,2.72.77,6.22c.6,4.83,1.31,10.1,2.11,15.66s1.61,11.35,2.44,17.37c.63,4.6,1.22,8.86,1.75,12.81,3.42,2.65,6.44,3,10.54,1.7,1.78-.57,3.53-1.18,5.25-1.81-.11-.91-.23-1.82-.35-2.74-1.05-8.27-2-15.88-2.91-23.25-.88-7.08-1.72-14-2.5-20.5-.71-6-1.33-11-1.85-14.91-.69-5.21-1.74-13.25-1.75-13.36l-13.71-1.5-13.57-1.48s-3,22.16-3.72,28.15-1.68,13-2.74,20.61c-1.11,7.94-2.19,15.9-3.22,23.66-1.12,8.5-2.14,16.28-3.11,23.76-.19,1.49-.38,2.94-.57,4.37l.32-.11C267.46,317.17,269.41,314.09,269.69,309.24Z"/><path class="cls-1" d="M344.2,277.64V226.29l-14.64-1.6v61.7c1.75-1.52,3.26-3.27,4.93-4.87A14.54,14.54,0,0,1,344.2,277.64Z"/><path class="cls-1" d="M360.35,358l.79,1.17h.75c6.06.07,10.67-1.26,13.71-3.94s4.59-6.93,4.59-12.64V230.23l-14.06-1.54v113a7,7,0,0,1-1.41,4.46,4.66,4.66,0,0,1-4,1.6l-7-.14c.14.82.28,1.63.41,2.45A64.25,64.25,0,0,1,360.35,358Z"/><path class="cls-1" d="M329.56,307.76v24.38l.18-.14a17.71,17.71,0,0,1,14.46-2.29V302.49c-2,.84-4,1.65-6.06,2.38C335.32,305.89,332.45,306.84,329.56,307.76Z"/><path class="cls-1" d="M431.56,291c.26-1.67.5-3.2.71-4.53.12.9.26,1.91.42,3,.13-.19.26-.37.4-.55,3.23-4.14,6.34-8.38,9.84-12.2-.59-4.2-1.2-8.37-1.83-12.42-.77-4.94-1.42-9.42-2-13.29-.6-4.37-1-7.33-1.34-9.6-.42-3-.65-5-.65-5L427,235.35s-.26,1.9-.7,4.75c-.37,2.45-.83,5.62-1.36,9.43-.58,4.1-1.22,8.54-1.91,13.21-.78,5.23-1.5,10.17-2.2,15.09-1.34,9.51-2.88,20.29-4.67,32.77q4.37-5.36,8.89-10.54A105.38,105.38,0,0,0,431.56,291Z"/><path class="cls-1" d="M402.51,232.67l-12.69-1.39,14.52,94.58q5-6.87,10.32-13.46Z"/><path class="cls-1" d="M450,309.64q-.58,3.89-1.25,8.33c-.31-2.27-.62-4.5-.93-6.72a46.07,46.07,0,0,0-8.87,9.81l-1.23,1.79,5.39,36,.14,1.28,11.08.13.19-1.24,8.2-55.52a20.13,20.13,0,0,1-4.5,2.12A32.63,32.63,0,0,0,450,309.64Z"/><path class="cls-1" d="M459.59,270.76a13.57,13.57,0,0,1,7.36,4.06l5.1-34.54L460.69,239c-1.71,11-3.35,21.78-4.78,31.31A19.56,19.56,0,0,1,459.59,270.76Z"/><path class="cls-1" d="M421,359.84c.83-5.42,1.65-10.73,2.42-15.82q-5.1,7.75-10,15.73Z"/><path class="cls-1" d="M245.11,369l1.82-4.37-17.5-.13-14.79,35.27-5.32,12.61c-1.85,4.37-3.4,8-4.73,11.13-1.42,3.29-2.6,6-3.51,8,0,.1-.09.2-.13.29V379.5c-3.89.09-8-1.57-11.73-5.15-3.52-3.39-5.37-6.88-5.59-10.15h-.83V512.61L201,511V472.4a1.48,1.48,0,0,1,.13-.73l0-.05L207,457.76l22.06,49.84,0,.07.28.72,17.94-1.63c-5.18-11.87-10.81-24.73-14.94-34.29-1.71-4-3.5-8.05-5.32-12.14s-3.35-7.65-4.62-10.78-2.4-5.85-3.31-7.89a24,24,0,0,1-1.28-3.14v-.17l-.09-.17a3.51,3.51,0,0,1,0-2.83c3.15-7.67,6.47-15.78,9.87-24.11,2.39-5.87,4.56-11.16,6.58-16,.23-6.12.29-7.79,1.44-10.49A85.73,85.73,0,0,1,245.11,369Z"/><path class="cls-1" d="M408,368.64q-3,5.08-5.93,10.29c-.61,1.1-1.25,2.18-1.92,3.25v11l2.11,0,4.6-.07,6.64-.09V381.45c0-5.46-1.47-9.48-4.38-12A11.68,11.68,0,0,0,408,368.64Z"/><path class="cls-1" d="M372,382a48.37,48.37,0,0,0,3.33-6.33q2.2-5,4.63-9.9a17.11,17.11,0,0,0-9.5,3.72c-3.09,2.67-4.66,7-4.66,12.75v2.51A6.2,6.2,0,0,0,372,382Z"/><path class="cls-1" d="M384.14,426.91c0,.7,0,1.4,0,2.09,2.62,2.4,5.15,4.88,7.51,7.4a48.12,48.12,0,0,1,6.19,8.08,15.85,15.85,0,0,1,2.35,8.22V476a7.46,7.46,0,0,1-1.35,4.49,4.86,4.86,0,0,1-3.84,2l-9.77.81c-1.92.16-3.32-.19-4.17-1a4.63,4.63,0,0,1-1.33-3.53v-12l-6.8.48-5.26.36-1.82.13v12.13c0,5.66,1.58,9.69,4.68,12s7.54,3.12,13.33,2.59l12.48-1.13c5.63-.51,9.94-2.21,12.84-5.06s4.36-7.12,4.36-12.7V452.43a30.62,30.62,0,0,0-2.48-12.62,41,41,0,0,0-6.28-9.86,72,72,0,0,0-8.21-8.08c-2.9-2.42-5.65-4.88-8.18-7.32-1-.95-1.89-1.93-2.75-2.92A61.09,61.09,0,0,0,384.14,426.91Z"/><path class="cls-1" d="M421,371.31v5.26l19.44,0a.78.78,0,0,1,.4.06.34.34,0,0,1,0,.18V489.22l12.53-1.14V376.77a1,1,0,0,1,0-.24h0l18.2,0V366.22L421,365.87Z"/><path class="cls-2" d="M358.08,373.29a29.58,29.58,0,0,0,3.6,8.69,5.67,5.67,0,0,0,4.08,2.79l-4.42-25.34-.2-.29-5.56-.07C356.37,363.83,357.18,368.57,358.08,373.29Z"/><path class="cls-2" d="M324.64,339.5l-6.87,10c.07.59.14,1.17.2,1.71.47,4,.89,7.12.93,7.49l-7.4-.08-.52.75q.45,7.84.71,15.7l15.1-22.14c-.7-3.12-1.37-6.24-2-9.38A11.6,11.6,0,0,1,324.64,339.5Z"/><path class="cls-2" d="M360,444.12c-2.69,13.94-4.54,35.26-16.92,48.27-8.13,8.55-35.88,22.72-35.88,22.72s-28.89-8.95-37.82-16.35c-16.64-13.79-18.16-38.77-22.85-52-1.2-3.38-10.91-4-3.41-14.74,2.58-40.68,1.56-41.62,2.69-44.29,4.17-9.84,16.95-26,20.14-26L280.77,370c-.39-3.83-1-7.65-1.65-11.46l-6.43-3.62c-.13,1-.16,1.29-.16,1.36v.13l-.23,1.73L256,358c0-.13.09-.62.21-1.42a59.85,59.85,0,0,0-8.73,9.37c-.81,1-1.59,2.07-2.36,3.11-2.29,5.54-6.21,15-8.42,20.26q-1.19,2.87-2.45,5.92v.1c-.2,5.4-.57,15.29-1.78,34.53-7.6,12.79,1.07,19.25,4.25,21.53.87,2.74,1.69,6.13,2.55,9.67,3.35,13.79,7.91,32.58,22.57,44.6,9.89,8.11,36.2,16.33,41.26,17.86l4.11,1.25,4.09-2.12c5-2.57,29.68-15.6,38.52-25,12.36-13.11,15.45-31.39,17.93-46,.28-1.68.56-3.31.84-4.87a12.6,12.6,0,0,1-7.7-2C360.57,444.54,360.29,444.33,360,444.12Z"/><path class="cls-2" d="M318,351.2c-.06-.54-.13-1.12-.2-1.71l-6.27,9.12,7.4.08C318.86,358.32,318.44,355.16,318,351.2Z"/><path class="cls-2" d="M265.94,352.77c-3.35,0-6.36,1-9.74,3.77-.12.8-.19,1.29-.21,1.42l16.31.19.23-1.73v-.13c0-.07,0-.33.16-1.36l-3.76-2.11Z"/><path class="cls-2" d="M354.07,350.06q.76,4.51,1.51,9l5.56.07-.79-1.17A64.25,64.25,0,0,0,354.07,350.06Z"/><path class="cls-2" d="M245.11,369a85.73,85.73,0,0,0-9.43,15.69c-1.15,2.7-1.21,4.37-1.44,10.49q1.26-3.06,2.45-5.92C238.9,384,242.82,374.56,245.11,369Z"/><path d="M345.53,417.24a19.26,19.26,0,0,1-2.31-3.11c.29-.21-.3-3.3-1-6.35q-.9-2.67-1.78-5.36c-.8,2.35-1.73,9-2.69,10.82,0,0-9-10.26-12.42-10-.08,0-8.39,6.15-13.51,8.15-.23,6.56-.51,13.13-.24,19.66a75.63,75.63,0,0,0,1.32,10.68,46.69,46.69,0,0,1,9.19-3.19l1-.21,1-.05a25.56,25.56,0,0,1,7.52.66,17.46,17.46,0,0,1,8,4.34l0,.05c3-4.54,6.5-7,10.23-7.17a9.88,9.88,0,0,1,1.22,0l1.41.13.06-.2q-.37-.75-.69-1.56Q348.64,426,345.53,417.24Z"/><path d="M260.9,440.18h0c4.21-.19,8.09,2,11.41,6.46a23.23,23.23,0,0,1,4.46-3.37c-.2-1.88-.4-3.79-.63-5.76,1.05-7.17,2.49-15,3.55-23.1a53.94,53.94,0,0,0-7.85,4.48c-.68-.24-4.34-10.64-5.39-11.71,0,0-1.31,11.22-.64,11.63,0,0-1.85,4.57-3.87,6.5-1.62,1.46-3.22,5.1-5.08,3.57-2.81-2.31-.86-11.94-.4-15.06a57.35,57.35,0,0,1,6.52-19c2.57-4.11,7.88-11,7.88-11,1.57-2.34,5.95-1.35,10.65,1,0-1.3,0-2.61-.07-3.91l-14.14-7.74c-3.8,4.48-9.07,11.89-11.43,17.39-.08.72-.15,2.64-.24,5-.21,5.59-.59,16-1.89,36.56l-.14,2.3-1.4,2c-.27.39-.49.72-.65,1a16.56,16.56,0,0,1,3.75,3.63l4.22-.75A9.11,9.11,0,0,1,260.9,440.18Z"/><path d="M312.07,392.13c1.5-1.08,2.65-1.95,2.65-1.95,5.71-5.8,12.73-16.84,13.84-17.43a6.35,6.35,0,0,1,2.91-.66q-.9-3.45-1.77-6.91l-17.64,26.08C312.06,391.55,312.06,391.84,312.07,392.13Z"/><path d="M305.79,505l1.4.49,1.43-.76-1.77.2Z"/><path d="M352.76,436.33l-.12-.22-.06.2Z"/><path d="M356.3,441.06l0,.64a124.3,124.3,0,0,1-1.55,12.9c-1.67,9.77-4.18,17.6-7.46,23.28a48.37,48.37,0,0,1-9.17,12.5,70.14,70.14,0,0,1-10.53,8.11l-.11.07-.11.06a39.68,39.68,0,0,1-9.65,4.26,54.82,54.82,0,0,1-9.06,1.8l-1.43.76-1.4-.49a52,52,0,0,1-9.94-.06,35.88,35.88,0,0,1-10.11-2.52l-.12-.05-.11-.05a59.56,59.56,0,0,1-11.35-6.48A40.63,40.63,0,0,1,264,484.21c-3.71-5.51-6.58-13.5-8.5-23.74a119.11,119.11,0,0,1-1.79-13.67l-.32-5.36,2-.35a16.56,16.56,0,0,0-3.75-3.63c.16-.29.38-.62.65-1l1.4-2,.14-2.3c1.3-20.57,1.68-31,1.89-36.56.09-2.37.16-4.29.24-5,2.36-5.5,7.63-12.91,11.43-17.39l14.14,7.74q-.1-4.05-.41-8.09c-.07-.94-.16-1.87-.26-2.81l-14.83-8.23c-3.19,0-16,16.14-20.14,26-1.13,2.67-.11,3.61-2.69,44.29-7.5,10.72,2.21,11.36,3.41,14.74,4.69,13.2,6.21,38.18,22.85,52,8.93,7.4,37.82,16.35,37.82,16.35s27.75-14.17,35.88-22.72c12.38-13,14.23-34.33,16.92-48.27A27.38,27.38,0,0,1,356.3,441.06Z"/><path d="M312.06,391.26l17.64-26.08q-1.53-6.1-2.91-12.26l-15.1,22.14Q312,383.15,312.06,391.26Z"/><path class="cls-2" d="M278.29,457.23c-.12.26-.22.53-.33.8.26.79.51,1.6.74,2.43C278.56,459.39,278.42,458.32,278.29,457.23Z"/><path class="cls-2" d="M310.71,472l-.5.54a18.22,18.22,0,0,1,10.4-.35c.23-1.36.36-2.89.48-4.38a26.54,26.54,0,0,1,1.06-6.56l3-8.35,7.12,5.22,1.22.9c.27-1.16.55-2.25.84-3.28-1.58-6.47-5.39-7.66-10.11-7.41a34.77,34.77,0,0,0-9.14,3.75C316.32,459,316.13,465.82,310.71,472Z"/><path d="M323.15,443.43l.5-.11.52,0c1.84-.09,7.39-.37,11.45,3.51a12.54,12.54,0,0,1,1.34,1.55c.16-.36.33-.71.48-1a34.73,34.73,0,0,1,2.28-4l0-.05a17.46,17.46,0,0,0-8-4.34,25.56,25.56,0,0,0-7.52-.66l-1,.05-1,.21a46.69,46.69,0,0,0-9.19,3.19c.32,1.73.67,3.45,1,5.17A40.38,40.38,0,0,1,323.15,443.43Z"/><path d="M275.27,451.49c.26-.31.51-.62.79-.92a16.21,16.21,0,0,1,1.34-1.28q-.31-2.94-.63-6a23.23,23.23,0,0,0-4.46,3.37,30.92,30.92,0,0,1,2.54,4Z"/><path d="M276.06,450.57c-.28.3-.53.61-.79.92A46.48,46.48,0,0,1,278,458c.11-.27.21-.54.33-.8-.32-2.59-.61-5.22-.89-7.94A16.21,16.21,0,0,0,276.06,450.57Z"/><path d="M315,452.07a34.77,34.77,0,0,1,9.14-3.75c4.72-.25,8.53.94,10.11,7.41a53.24,53.24,0,0,1,2.68-7.38,12.54,12.54,0,0,0-1.34-1.55c-4.06-3.88-9.61-3.6-11.45-3.51l-.52,0-.5.11a40.38,40.38,0,0,0-9.19,3.45c.29,1.38.59,2.77.87,4.15C314.9,451.38,315,451.72,315,452.07Z"/><path class="cls-2" d="M311.85,411.37c5.12-2,13.43-8.13,13.51-8.15,3.37-.24,12.42,10,12.42,10,1-1.84,1.89-8.47,2.69-10.82q-4.91-15-9-30.33a6.35,6.35,0,0,0-2.91.66c-1.11.59-8.13,11.63-13.84,17.43,0,0-1.15.87-2.65,1.95q0,4.67,0,9.33C312.07,404.76,312,408.06,311.85,411.37Z"/><path class="cls-2" d="M281.51,384.82c-4.7-2.32-9.08-3.31-10.65-1,0,0-5.31,6.9-7.88,11a57.35,57.35,0,0,0-6.52,19c-.46,3.12-2.41,12.75.4,15.06,1.86,1.53,3.46-2.11,5.08-3.57,2-1.93,3.87-6.5,3.87-6.5-.67-.41.64-11.63.64-11.63,1.05,1.07,4.71,11.47,5.39,11.71a53.94,53.94,0,0,1,7.85-4.48c.41-3.12.78-6.26,1-9.41C281.27,398.3,281.56,391.55,281.51,384.82Z"/><path class="cls-2" d="M343.22,414.13a19.26,19.26,0,0,0,2.31,3.11q-1.68-4.71-3.28-9.46C342.92,410.83,343.51,413.92,343.22,414.13Z"/><path class="cls-5" d="M316.72,311.58c4.33-1.21,8.62-2.48,12.84-3.82V286.39l-.31.28c-5.19,4.36-11.39,7.28-18,9.7.73,5.7,1.42,11.22,2.07,16.49A19.7,19.7,0,0,1,316.72,311.58Z"/><path class="cls-5" d="M281.41,293.07c-.3,2.07-.58,4.05-.85,5.91-.69,4.92-1.24,8.84-1.69,12-.54,3.8-.65,4.65-.67,4.81,0,.68.18.84.19.84l.12,0,19.39.79a.85.85,0,0,0,.34,0s.13-.18,0-.83l0-.08v-.07c0-.36-.48-3.51-.65-4.71-.46-3.25-1-7.25-1.65-11.88-.15-1.07-.3-2.19-.46-3.32l-.2-.15A17.11,17.11,0,0,0,281.41,293.07Z"/><path class="cls-5" d="M311,359.36c0-.25,0-.51-.05-.76l-7.09-.08-.16-1.63c0-.23-.2-1.64-.54-4.19s-.75-5.53-1.17-8.67l0-.28c-.43-3.25-.84-6.24-1.2-9-.46-3.42-.54-4.37-.55-4.71-.1-.54-.29-.55-.52-.56l-22.28-.72c-.83,0-.95.18-1,.34s-.13,1.14-.69,4.56c-.25,1.51-.5,3.13-.75,4.82a12.78,12.78,0,0,1,1.13,3.65c.95,5.47,2.07,10.93,3,16.39l23.38,13.14Z"/><path class="cls-5" d="M353.85,298c5.5-2.81,7.82-8.8,5.45-12.67-3.17-5.16-9.27-7.91-15.1-7.72v24.85C347.5,301.11,350.73,299.62,353.85,298Z"/><path class="cls-5" d="M201,379.5c4.69-.11,9-2.79,11.81-7.88a44.81,44.81,0,0,1,6.73-9.46,78.8,78.8,0,0,1,7.54-6.88V337.92c-.63.46-1.28.91-1.94,1.34-7.17,4.66-15.59,7.46-24.16,10.26v7.79l-14.86-.17a9.8,9.8,0,0,0-2.44,7.06l17.32.12Z"/><path class="cls-5" d="M258.65,338.24c.12-.86.24-1.74.37-2.65.67-4.83,1.41-10.34,2.21-16.41a114.39,114.39,0,0,0-17.08,7.45v17.81A134.45,134.45,0,0,1,258.65,338.24Z"/><path class="cls-5" d="M200.93,349.52c-1.76.57-3.53,1.14-5.29,1.73-4.38,1.46-7.57,3.5-9.57,5.89l14.86.17Z"/><path class="cls-5" d="M227,337.92v17.36a95.81,95.81,0,0,1,17.12-10.84V326.63q-2.61,1.37-5.18,2.76C234.64,331.75,231,335.05,227,337.92Z"/><path class="cls-5" d="M258.65,338.24q2.85-1,5.76-2c5.51-1.8,8.81-1.14,10.54,2.26.25-1.69.5-3.31.75-4.82.56-3.42.67-4.26.69-4.56s.16-.36,1-.34l22.28.72c.23,0,.42,0,.52.56,0,.34.09,1.29.55,4.71.36,2.73.77,5.72,1.2,9l0,.28q.63,4.71,1.17,8.67c.34,2.55.52,4,.54,4.19l.16,1.63,7.09.08q-1-17.53-3-35.1c-.6-5.18,1.21-8.56,5.39-10.64-.65-5.27-1.34-10.79-2.07-16.49-1.72.63-3.47,1.24-5.25,1.81-4.1,1.34-7.12.95-10.54-1.7.16,1.13.31,2.25.46,3.32.63,4.63,1.19,8.63,1.65,11.88.17,1.2.62,4.35.65,4.71v.07l0,.08c.15.65,0,.83,0,.83a.85.85,0,0,1-.34,0l-19.39-.79-.12,0s-.18-.16-.19-.84c0-.16.13-1,.67-4.81.45-3.12,1-7,1.69-12,.27-1.86.55-3.84.85-5.91-5.19,1-9.67,4.31-11,9.34a34.41,34.41,0,0,0-.71,6.83c-.28,4.85-2.23,7.93-8.14,9.83l-.32.11c-.8,6.07-1.54,11.58-2.21,16.41C258.89,336.5,258.77,337.38,258.65,338.24Z"/><path class="cls-5" d="M338.14,304.87c2.05-.73,4.06-1.54,6.06-2.38V277.64a14.54,14.54,0,0,0-9.71,3.88c-1.67,1.6-3.18,3.35-4.93,4.87v21.37C332.45,306.84,335.32,305.89,338.14,304.87Z"/><path class="cls-5" d="M189.22,374.35c3.71,3.58,7.84,5.24,11.73,5.15V364.32l-17.32-.12C183.85,367.47,185.7,371,189.22,374.35Z"/><path class="cls-5" d="M311.69,375.06q-.26-7.86-.71-15.7l-8.48,12.33-23.38-13.14c.67,3.81,1.26,7.63,1.65,11.46l24.93,13.83Z"/><path class="cls-5" d="M312.06,391.26,310.91,393l1.16-.82C312.06,391.84,312.06,391.55,312.06,391.26Z"/><path class="cls-5" d="M308,410.78l-2.58-14.48-.2-.06-.2.07-2.59,14.62c-.18,5.15-18.41,2.39-18.53,2.36h0a11.14,11.14,0,0,0-4.17,1.12c-1.06,8.06-2.5,15.93-3.55,23.1.23,2,.43,3.88.63,5.76a25.52,25.52,0,0,1,11.65-3.37l1.23,0,1.2.16a44.2,44.2,0,0,1,10.64,3.11,37.33,37.33,0,0,1,4.76,2.46,41.09,41.09,0,0,1,5.05-3.07c.56-.29,1.1-.55,1.63-.8A75.63,75.63,0,0,1,311.61,431c-.27-6.53,0-13.1.24-19.66C309.63,412.23,308,412.32,308,410.78Z"/><path class="cls-5" d="M289,389.37s16.21,6.87,16,6.87h.4a6.61,6.61,0,0,0,2.16-1l-26.1-14.29c0,1.3.06,2.61.07,3.91A51.86,51.86,0,0,1,289,389.37Z"/><path class="cls-5" d="M281.44,380.91l26.1,14.29c1-.63,2.23-1.45,3.37-2.25l1.15-1.69q-.09-8.11-.37-16.2l-6,8.78L280.77,370c.1.94.19,1.87.26,2.81Q281.33,376.86,281.44,380.91Z"/><path class="cls-5" d="M278.71,460.49q.26.92.48,1.86l1.33-1.1L288.1,455l3.1,8.18a24.7,24.7,0,0,1,1.1,6.57c.13,1.5.26,3.05.5,4.4a20.41,20.41,0,0,1,6.07-1.41,17.37,17.37,0,0,1,8,1.29,18.59,18.59,0,0,1,3.36-1.49l.5-.54c5.42-6.17,5.61-13,4.32-19.92-3.58,2.14-7.17,5.34-8.5,9.92-4.12-9.91-18.11-11.76-18.11-11.76a11.21,11.21,0,0,0-10.13,7c.13,1.09.27,2.16.41,3.23Z"/><path class="cls-5" d="M306.25,445.58a37.33,37.33,0,0,0-4.76-2.46A44.2,44.2,0,0,0,290.85,440l-1.2-.16-1.23,0a25.52,25.52,0,0,0-11.65,3.37q.32,3.08.63,6a18,18,0,0,1,11-4.22l.62,0,.6.08c.52.07,9.85,1.42,16.64,7.23a30.88,30.88,0,0,1,7.68-5.47c-.36-1.72-.71-3.44-1-5.17-.53.25-1.07.51-1.63.8A41.09,41.09,0,0,0,306.25,445.58Z"/><path class="cls-5" d="M288.42,450.23s14,1.85,18.11,11.76c1.33-4.58,4.92-7.78,8.5-9.92-.07-.35-.13-.69-.2-1-.28-1.38-.58-2.77-.87-4.15a30.88,30.88,0,0,0-7.68,5.47c-6.79-5.81-16.12-7.16-16.64-7.23L289,445l-.62,0a18,18,0,0,0-11,4.22c.28,2.72.57,5.35.89,7.94A11.21,11.21,0,0,1,288.42,450.23Z"/><path class="cls-5" d="M305,396.24c.2,0-16-6.87-16-6.87a51.86,51.86,0,0,0-7.46-4.55c.05,6.73-.24,13.48-.79,20.18-.25,3.15-.62,6.29-1,9.41a11.14,11.14,0,0,1,4.17-1.12h0c.12,0,18.35,2.79,18.53-2.36L305,396.31l.2-.07.2.06L308,410.78c.06,1.54,1.67,1.45,3.89.59.12-3.31.22-6.61.24-9.91q0-4.66,0-9.33l-1.16.82-2,3-1.35-.74a6.61,6.61,0,0,1-2.16,1Z"/><path class="cls-5" d="M310.91,393c-1.14.8-2.35,1.62-3.37,2.25l1.35.74Z"/><path class="cls-2" d="M268,452.26c-2.43-4.08-5.11-6.24-7.12-6.14l-.33,0a114.46,114.46,0,0,0,3.81,22,43,43,0,0,1,.53-6.51A28.92,28.92,0,0,1,268,452.26Z"/><path class="cls-2" d="M345.91,466.13a115.3,115.3,0,0,0,4.34-24.41H350c-1.83.09-4.3,2.53-6.54,6.87a26.56,26.56,0,0,1,2.15,7.75A57.72,57.72,0,0,1,345.91,466.13Z"/><path class="cls-2" d="M322.46,479.41a13,13,0,0,0-7.72-2.07,12.18,12.18,0,0,0-7.89,3.94,10.28,10.28,0,0,0-5.05-2.58,16.49,16.49,0,0,1-8.61,1.61,21.2,21.2,0,0,0-2.31,1.49c-2-.19-3.22-1.66-3.94-3.69a13,13,0,0,1-3.43-3.36,27.23,27.23,0,0,1-3.09-5.66c-1.3,1.08-2.67,2.2-3.8,3.12.17,2,.46,4.27.89,6.7,1,5.64,9,16.55,29,14.85,19.46-1.66,27.18-13.1,27.85-19,.3-2.64.5-5,.61-7.18-2.92-2.08-6.87-4.95-6.87-4.95C326.71,466.61,328.23,478,322.46,479.41Z"/><path class="cls-2" d="M339.82,474.87A21.59,21.59,0,0,1,334.44,486a42.48,42.48,0,0,0,7.42-10.36,47,47,0,0,0,4.05-9.53,57.72,57.72,0,0,0-.35-9.8,26.56,26.56,0,0,0-2.15-7.75,45.79,45.79,0,0,0-3.25,8.56C340.79,461.64,340.66,467.43,339.82,474.87Z"/><path class="cls-2" d="M291,497.76c4.63,1.54,9.82,1.91,15.86,1.37,6.83-.6,12.46-2.17,17.35-5.14l.07-.05a47.11,47.11,0,0,1-17.74,4.91A45.14,45.14,0,0,1,291,497.76Z"/><path class="cls-2" d="M275.65,488.37a18.48,18.48,0,0,1-4-8.24c-1.48-8.29-1.56-15.07-.24-20.45a38,38,0,0,0-3.34-7.42,28.92,28.92,0,0,0-3.11,9.36,43,43,0,0,0-.53,6.51A46.68,46.68,0,0,0,270,481,38.13,38.13,0,0,0,275.65,488.37Z"/><path class="cls-2" d="M271.6,480.13a18.48,18.48,0,0,0,4,8.24c4,4.05,8.4,6.31,13.4,8.66.64.27,1.29.51,1.94.73a45.14,45.14,0,0,0,15.54,1.09,47.11,47.11,0,0,0,17.74-4.91A58.32,58.32,0,0,0,334.44,486a21.59,21.59,0,0,0,5.38-11.15c.84-7.44,1-13.23.34-17.73A65.16,65.16,0,0,0,338,469.66h0c-.08,0-1.4-.92-3.05-2.1-.11,2.16-.31,4.54-.61,7.18-.67,5.91-8.39,17.35-27.85,19-20,1.7-28-9.21-29-14.85-.43-2.43-.72-4.66-.89-6.7-1.35,1.1-2.35,1.89-2.42,1.89h0a60,60,0,0,0-2.84-14.42C270,465.06,270.12,471.84,271.6,480.13Z"/><path class="cls-2" d="M280.42,469.09a27.23,27.23,0,0,0,3.09,5.66,13,13,0,0,0,3.43,3.36c-1.42-4-1-10.13-2-12.73Z"/><path class="cls-2" d="M293.19,480.31a16.49,16.49,0,0,0,8.61-1.61,10.61,10.61,0,0,0-2.93-.19A14,14,0,0,0,293.19,480.31Z"/><path d="M306.53,504c-1,.1-2,.16-3,.2.78.28,1.54.55,2.29.8l1.06-.07,1.77-.2,2.46-1.32C309.62,503.6,308.11,503.8,306.53,504Z"/><path d="M257,444.75l0-.95,3.07-.55a5,5,0,0,1,.86-.1c3.26-.16,6.44,2.1,9.14,6a22.66,22.66,0,0,1,1.47-1.75c.26-.27.54-.51.8-.77-3.32-4.42-7.2-6.65-11.41-6.46h0a9.11,9.11,0,0,0-1.38.16l-4.22.75a10.29,10.29,0,0,1,1.39,2.61C256.8,444,256.91,444.4,257,444.75Z"/><path d="M350,438.93a4.79,4.79,0,0,1,.76,0l1.15.11c.23-.95.47-1.87.72-2.75l-1.41-.13a9.88,9.88,0,0,0-1.22,0c-3.73.17-7.22,2.63-10.23,7.17a16.29,16.29,0,0,1,2,2.31C344.15,441.55,347,439.07,350,438.93Z"/><path d="M351.86,439.06l1.54.14-.14,2.51c-.05.89-1.25,21.29-8.16,34.08a24.43,24.43,0,0,1-3,8.23,34.48,34.48,0,0,1-7.32,8.78c-4.44,3.86-12,8.62-23.68,10.56l-2.46,1.32a54.82,54.82,0,0,0,9.06-1.8,39.68,39.68,0,0,0,9.65-4.26l.11-.06.11-.07a70.14,70.14,0,0,0,10.53-8.11,48.37,48.37,0,0,0,9.17-12.5c3.28-5.68,5.79-13.51,7.46-23.28a124.3,124.3,0,0,0,1.55-12.9l0-.64a19,19,0,0,1-3.54-4.73l-.18,0C352.33,437.19,352.09,438.11,351.86,439.06Z"/><path d="M277.11,497.56a29.78,29.78,0,0,1-7.88-7.78,22.1,22.1,0,0,1-3.6-8.42c-.08-.46-.14-.9-.22-1.35-7-12.72-8.23-32.63-8.28-33.53l-.11-1.73c-.11-.35-.22-.72-.33-1.05a10.29,10.29,0,0,0-1.39-2.61l-2,.35.32,5.36a119.11,119.11,0,0,0,1.79,13.67c1.92,10.24,4.79,18.23,8.5,23.74a40.63,40.63,0,0,0,10.2,11.58,59.56,59.56,0,0,0,11.35,6.48l.11.05.12.05a35.88,35.88,0,0,0,10.11,2.52,52,52,0,0,0,9.94.06c-.75-.25-1.51-.52-2.29-.8C290.65,504.71,282.12,501,277.11,497.56Z"/><path d="M332.22,458.11l-7.12-5.22-3,8.35a26.54,26.54,0,0,0-1.06,6.56c-.12,1.49-.25,3-.48,4.38a18.22,18.22,0,0,0-10.4.35,29,29,0,0,1-4.89,4.14,14.57,14.57,0,0,1,1.53.75,15.48,15.48,0,0,1,7.89-2.94,15.64,15.64,0,0,1,7.83,1.56,6.64,6.64,0,0,0,.68-1.57,34.08,34.08,0,0,0,1-6.66,24.69,24.69,0,0,1,.9-5.88l1.47-4.17,3.56,2.6,4.91,3.57a34.41,34.41,0,0,0-.8-8.2c-.29,1-.57,2.12-.84,3.28Z"/><path d="M276.89,468.11l2.63-2.15c0-.16-.07-.31-.09-.46-.27-1.67-.51-3.35-.73-5-.23-.83-.48-1.64-.74-2.43a24.76,24.76,0,0,0-1.49,7.74Q276.7,466.93,276.89,468.11Z"/><path d="M275.27,451.49l-.42-.85a30.92,30.92,0,0,0-2.54-4c-.26.26-.54.5-.8.77a22.66,22.66,0,0,0-1.47,1.75,33.34,33.34,0,0,1,3.09,5.66A18.39,18.39,0,0,1,275.27,451.49Z"/><path d="M306.85,502a54.13,54.13,0,0,1-8.86.12c1.87.71,3.72,1.39,5.51,2,1,0,2-.1,3-.2,1.58-.15,3.09-.35,4.55-.59,1.83-1,3.71-2.05,5.6-3.12A52.92,52.92,0,0,1,306.85,502Z"/><path d="M337,448.35a14.6,14.6,0,0,1,1.83,3.34,38.13,38.13,0,0,1,2.91-6.07,16.29,16.29,0,0,0-2-2.31,34.73,34.73,0,0,0-2.28,4C337.29,447.64,337.12,448,337,448.35Z"/><path d="M325.88,496.24l-.05,0-.06,0a36.84,36.84,0,0,1-9.09,3.93c-1.89,1.07-3.77,2.12-5.6,3.12,11.66-1.94,19.24-6.7,23.68-10.56a34.48,34.48,0,0,0,7.32-8.78,24.43,24.43,0,0,0,3-8.23c-.17.33-.35.66-.54,1C339.21,486.93,333.22,491.41,325.88,496.24Z"/><path d="M287.4,499.7l-.06,0-.06,0c-7.84-3.66-14.36-7.27-20.3-17-.55-.82-1.07-1.69-1.57-2.59.08.45.14.89.22,1.35a22.1,22.1,0,0,0,3.6,8.42,29.78,29.78,0,0,0,7.88,7.78c5,3.41,13.54,7.15,26.39,6.59-1.79-.63-3.64-1.31-5.51-2A33.73,33.73,0,0,1,287.4,499.7Z"/><path d="M335.08,463.93c.17.11.33.23.49.35a61.68,61.68,0,0,1,3.22-12.59,14.6,14.6,0,0,0-1.83-3.34,53.24,53.24,0,0,0-2.68,7.38A34.41,34.41,0,0,1,335.08,463.93Z"/><path d="M278,458a46.48,46.48,0,0,0-2.69-6.54,18.39,18.39,0,0,0-2.14,3.33,54.28,54.28,0,0,1,3.34,10.95A24.76,24.76,0,0,1,278,458Z"/><path d="M286.51,460.18l1.55,4.09a23.37,23.37,0,0,1,.95,5.91,32,32,0,0,0,1,6.69,6,6,0,0,0,.71,1.5,18.24,18.24,0,0,1,8.11-2.75,14,14,0,0,1,6.45,1.05,29,29,0,0,0,4.89-4.14,18.59,18.59,0,0,0-3.36,1.49,17.37,17.37,0,0,0-8-1.29,20.41,20.41,0,0,0-6.07,1.41c-.24-1.35-.37-2.9-.5-4.4a24.7,24.7,0,0,0-1.1-6.57L288.1,455l-7.58,6.26-1.33,1.1q-.22-.94-.48-1.86v0c.22,1.69.46,3.37.73,5,0,.15.06.3.09.46l3.2-2.64Z"/><path d="M350,438.93c-2.92.14-5.8,2.62-8.25,6.69a17.46,17.46,0,0,1,1.71,3c2.24-4.34,4.71-6.78,6.54-6.87h.3a115.3,115.3,0,0,1-4.34,24.41c0,.86-.08,1.74-.14,2.65a169,169,0,0,0,4-18.78c.7-4.05,1.33-7.69,2.1-10.94l-1.15-.11A4.79,4.79,0,0,0,350,438.93Z"/><path d="M264.5,472.15c-.08-1.39-.13-2.73-.12-4a114.46,114.46,0,0,1-3.81-22l.33,0c2-.1,4.69,2.06,7.12,6.14a24.27,24.27,0,0,1,2-3.1c-2.7-3.91-5.88-6.17-9.14-6a5,5,0,0,0-.86.1l-3.07.55,0,.95c1.14,3.43,2.08,7.33,3.07,11.45A164.44,164.44,0,0,0,264.5,472.15Z"/><path d="M260.09,456.2c-1-4.12-1.93-8-3.07-11.45l.11,1.73c.05.9,1.32,20.81,8.28,33.53a77.26,77.26,0,0,1-.91-7.86A164.44,164.44,0,0,1,260.09,456.2Z"/><path d="M345.77,468.78c-.12,2-.3,4-.55,6.21,0,.26-.07.53-.12.8,6.91-12.79,8.11-33.19,8.16-34.08l.14-2.51-1.54-.14c-.77,3.25-1.4,6.89-2.1,10.94A169,169,0,0,1,345.77,468.78Z"/><path d="M279.52,466l-2.63,2.15q-.19-1.19-.42-2.34a47.81,47.81,0,0,0,.15,6.44c1.13-.92,2.5-2,3.8-3.12A18.83,18.83,0,0,1,279.52,466Z"/><path d="M326.61,457.76l-1.47,4.17a24.69,24.69,0,0,0-.9,5.88,34.08,34.08,0,0,1-1,6.66,6.64,6.64,0,0,1-.68,1.57,15.64,15.64,0,0,0-7.83-1.56,15.48,15.48,0,0,0-7.89,2.94,14.57,14.57,0,0,0-1.53-.75,29.23,29.23,0,0,1-2.78,1.67c-.24.13-.49.24-.74.36a10.28,10.28,0,0,1,5.05,2.58,12.18,12.18,0,0,1,7.89-3.94,13,13,0,0,1,7.72,2.07c5.77-1.43,4.25-12.8,5.66-16.79,0,0,3.95,2.87,6.87,4.95.06-1.29.09-2.51.09-3.64l-4.91-3.57Z"/><path d="M290.88,481.8a21.2,21.2,0,0,1,2.31-1.49,13.6,13.6,0,0,1-6.25-2.2C287.66,480.14,288.84,481.61,290.88,481.8Z"/><path d="M343.41,448.58a17.46,17.46,0,0,0-1.71-3,38.13,38.13,0,0,0-2.91,6.07,23.7,23.7,0,0,1,1.37,5.45A45.79,45.79,0,0,1,343.41,448.58Z"/><path d="M334.44,486a31.79,31.79,0,0,1-3.27,3.3,35.75,35.75,0,0,1-6.9,4.62l-.07.05c-4.89,3-10.52,4.54-17.35,5.14-6,.54-11.23.17-15.86-1.37a31.52,31.52,0,0,1-9.95-4.44,25.61,25.61,0,0,1-5.39-4.95A38.13,38.13,0,0,1,270,481a46.68,46.68,0,0,1-5.61-12.86c0,1.29,0,2.63.12,4,2.64,7.57,6.35,14.8,12.33,19.82,3.5,2.93,12.48,6.86,21.16,10.16a54.13,54.13,0,0,0,8.86-.12,52.92,52.92,0,0,0,9.83-1.77c8.23-4.68,16.43-9.85,19.61-13.16,4.56-4.76,7.45-11.33,9.48-18.3.06-.91.11-1.79.14-2.65a47,47,0,0,1-4.05,9.53A42.48,42.48,0,0,1,334.44,486Z"/><path d="M271.36,459.68a23.25,23.25,0,0,1,1.77-4.86,33.34,33.34,0,0,0-3.09-5.66,24.27,24.27,0,0,0-2,3.1A38,38,0,0,1,271.36,459.68Z"/><path d="M287.28,499.65l.06,0,.06,0A33.73,33.73,0,0,0,298,502.13c-8.68-3.3-17.66-7.23-21.16-10.16-6-5-9.69-12.25-12.33-19.82a77.26,77.26,0,0,0,.91,7.86c.5.9,1,1.77,1.57,2.59C272.92,492.38,279.44,496,287.28,499.65Z"/><path d="M345.77,468.78c-2,7-4.92,13.54-9.48,18.3-3.18,3.31-11.38,8.48-19.61,13.16a36.84,36.84,0,0,0,9.09-3.93l.06,0,.05,0c7.34-4.83,13.33-9.31,18.68-19.47.19-.32.37-.65.54-1s.09-.54.12-.8C345.47,472.78,345.65,470.73,345.77,468.78Z"/><path d="M274.2,474.1c.07,0,1.07-.79,2.42-1.89a47.81,47.81,0,0,1-.15-6.44,54.28,54.28,0,0,0-3.34-10.95,23.25,23.25,0,0,0-1.77,4.86,60,60,0,0,1,2.84,14.42Z"/><path d="M324.27,493.94a35.75,35.75,0,0,0,6.9-4.62,31.79,31.79,0,0,0,3.27-3.3A58.32,58.32,0,0,1,324.27,493.94Z"/><path d="M275.65,488.37a25.61,25.61,0,0,0,5.39,4.95,31.52,31.52,0,0,0,9.95,4.44c-.65-.22-1.3-.46-1.94-.73C284.05,494.68,279.68,492.42,275.65,488.37Z"/><path d="M335.08,463.93c0,1.13,0,2.35-.09,3.64,1.65,1.18,3,2.1,3.05,2.1h0a65.16,65.16,0,0,1,2.12-12.52,23.7,23.7,0,0,0-1.37-5.45,61.68,61.68,0,0,0-3.22,12.59C335.41,464.16,335.25,464,335.08,463.93Z"/><path d="M284.91,465.38c1,2.6.61,8.73,2,12.73a13.6,13.6,0,0,0,6.25,2.2,14,14,0,0,1,5.68-1.8,10.61,10.61,0,0,1,2.93.19c.25-.12.5-.23.74-.36a29.23,29.23,0,0,0,2.78-1.67,14,14,0,0,0-6.45-1.05,18.24,18.24,0,0,0-8.11,2.75,6,6,0,0,1-.71-1.5,32,32,0,0,1-1-6.69,23.37,23.37,0,0,0-.95-5.91l-1.55-4.09-3.79,3.14-3.2,2.64a18.83,18.83,0,0,0,.9,3.13Z"/><path class="cls-5" d="M375.16,420.24a56.27,56.27,0,0,1-4.05-4.82l1,5.66c2.18,3.12,4.28,7.31,3.38,11.89a13.4,13.4,0,0,1-5.76,8.21c-.4,1.63-.78,3.53-1.15,5.58a15.51,15.51,0,0,0,9.6-4.22,18.64,18.64,0,0,0,6-13.54l-.63-.58C380.57,425.77,377.76,423,375.16,420.24Z"/><path class="cls-5" d="M435.28,306.81c-.74-4.86-1.36-8.92-1.88-12.42-.27-1.8-.5-3.43-.71-4.91-.39.5-.76,1-1.13,1.54-.15,1-.3,2-.47,3-.53,3.48-1.14,7.45-1.89,12.16-.73,4.56-1.46,9.28-2.17,14-1,7-2.28,15.06-3.61,23.78,4.71-7.17,9.5-14.21,14.3-21.17l-.29-2C436.65,315.75,435.87,310.67,435.28,306.81Z"/><path class="cls-5" d="M447.82,311.25c.71-.56,1.43-1.1,2.18-1.61.11-.7.21-1.4.31-2.07.58-3.83,1.26-8.2,2-13s1.49-9.77,2.17-14.73c.44-3,.92-6.17,1.42-9.51a15,15,0,0,0-11,4.3c-.68.67-1.34,1.37-2,2.08l.39,2.8C444.71,289.11,446.22,299.76,447.82,311.25Z"/><path class="cls-5" d="M399,377.92c-.77-.87-2.11-1.32-4-1.31H385a4.62,4.62,0,0,0-3.93,1.67,7.16,7.16,0,0,0-1.38,4.46v15.41a16.36,16.36,0,0,0,2.41,8.78,37.06,37.06,0,0,0,3.5,4.69,62.69,62.69,0,0,1,7.09-17.79c2.33-4,5-7.77,7.46-11.66v-.65A5.29,5.29,0,0,0,399,377.92Z"/><path class="cls-5" d="M416.13,310.6c-.49.6-1,1.2-1.47,1.8l.62,4.09Q415.72,313.48,416.13,310.6Z"/><path class="cls-5" d="M365.84,384.79l-.08,0,.08.45Z"/><path class="cls-5" d="M396.33,365.7c4.94,0,8.86,1,11.7,2.94q2.64-4.49,5.36-8.89l-3.85,0-5.2-33.85A276.42,276.42,0,0,0,380,365.81a31.44,31.44,0,0,1,3.85-.2Z"/><path class="cls-5" d="M324.64,339.5l1.94-2.83,3,.09v-4.62C326.82,334.16,325.08,336.55,324.64,339.5Z"/><path class="cls-5" d="M351.64,347.57l2,0c-.42-2.48-.85-4.95-1.3-7.43a16,16,0,0,0-2.79-6.93,10.65,10.65,0,0,0-5.37-3.54v11.87A52.23,52.23,0,0,1,351.64,347.57Z"/><path class="cls-5" d="M471.44,287.59c-.18-4.95-1.53-9.57-4.49-12.77l-4.23,28.65C468.15,300,470.63,294.23,471.44,287.59Z"/><path class="cls-5" d="M354.07,350.06c-.13-.82-.27-1.63-.41-2.45l-2,0Q352.87,348.76,354.07,350.06Z"/><path class="cls-5" d="M329.74,332l-.18.14v4.62l2.35.06c3.32.09,7.67,1.72,12.29,4.76V329.71A17.71,17.71,0,0,0,329.74,332Z"/><path class="cls-5" d="M452.32,294.59c-.75,4.78-1.43,9.15-2,13-.1.67-.2,1.37-.31,2.07a32.63,32.63,0,0,1,8.22-4.05,20.13,20.13,0,0,0,4.5-2.12L467,274.82a13.57,13.57,0,0,0-7.36-4.06,19.56,19.56,0,0,0-3.68-.41c-.5,3.34-1,6.52-1.42,9.51C453.81,284.82,453.08,289.78,452.32,294.59Z"/><path class="cls-5" d="M413.39,359.75q4.94-8,10-15.73c1.33-8.72,2.56-16.81,3.61-23.78.71-4.74,1.44-9.46,2.17-14,.75-4.71,1.36-8.68,1.89-12.16.17-1.07.32-2.07.47-3a105.38,105.38,0,0,1-6.54,9q-4.53,5.18-8.89,10.54-.42,2.88-.85,5.89l-.62-4.09q-5.31,6.59-10.32,13.46l5.2,33.85Z"/><path class="cls-5" d="M432.69,289.48c.21,1.48.44,3.11.71,4.91.52,3.5,1.14,7.56,1.88,12.42.59,3.86,1.37,8.94,2.15,14.06l.29,2,1.23-1.79a46.07,46.07,0,0,1,8.87-9.81c-1.6-11.49-3.11-22.14-4.5-31.72l-.39-2.8c-3.5,3.82-6.61,8.06-9.84,12.2C433,289.11,432.82,289.29,432.69,289.48Z"/><path class="cls-5" d="M408,368.64c-2.84-1.92-6.76-2.91-11.7-2.94l-12.48-.09a31.44,31.44,0,0,0-3.85.2q-2.42,4.88-4.63,9.9A48.37,48.37,0,0,1,372,382a6.2,6.2,0,0,1-6.2,2.75v.43l5.27,30.2a56.27,56.27,0,0,0,4.05,4.82c2.6,2.78,5.41,5.53,8.34,8.18l.63.58c0-.69,0-1.39,0-2.09a61.09,61.09,0,0,1,1.49-15.28,37.06,37.06,0,0,1-3.5-4.69,16.36,16.36,0,0,1-2.41-8.78V382.75a7.16,7.16,0,0,1,1.38-4.46,4.62,4.62,0,0,1,3.93-1.67h10c1.87,0,3.21.44,4,1.31a5.29,5.29,0,0,1,1.21,3.61v.65c.67-1.07,1.31-2.15,1.92-3.25Q405,373.73,408,368.64Z"/><path class="cls-5" d="M375.48,433c.9-4.58-1.2-8.77-3.38-11.89l-1-5.66c-.94-1.26-1.81-2.53-2.57-3.79a17.88,17.88,0,0,1-2.7-9.33V385.22l-.08-.45a5.67,5.67,0,0,1-4.08-2.79,29.58,29.58,0,0,1-3.6-8.69c-.9-4.72-1.71-9.46-2.5-14.22l-5.44-.06c.84,1.06,1.68,2.18,2.49,3.38l10.93,62.13c7.75,9.94-.91,9.54-1.93,12.75a64.32,64.32,0,0,0-1.64,6.85c.3.21.58.42.88.62a12.6,12.6,0,0,0,7.7,2c.37-2.05.75-3.95,1.15-5.58A13.4,13.4,0,0,0,375.48,433Z"/><path class="cls-5" d="M324.64,339.5a11.6,11.6,0,0,0,.14,4c.64,3.14,1.31,6.26,2,9.38l3.47-5.09a23.45,23.45,0,0,1-.7-5.92v-5.15l-3-.09Z"/><path class="cls-5" d="M345.6,346.05a6,6,0,0,0,4.39,1.49l1.65,0a52.23,52.23,0,0,0-7.44-6v.69A5.23,5.23,0,0,0,345.6,346.05Z"/><path class="cls-5" d="M351.64,347.57l-1.65,0a6,6,0,0,1-4.39-1.49,5.23,5.23,0,0,1-1.4-3.78v-.69c-4.62-3-9-4.67-12.29-4.76l-2.35-.06v5.15a23.45,23.45,0,0,0,.7,5.92l1.65-2.42c2.6.06,10.71,4.11,18.23,13.6l5.44.06q-.75-4.5-1.51-9Q352.87,348.76,351.64,347.57Z"/><path class="cls-5" d="M368.54,411.63c.76,1.26,1.63,2.53,2.57,3.79l-5.27-30.2V402.3A17.88,17.88,0,0,0,368.54,411.63Z"/><path class="cls-5" d="M351.44,422.05c-1.62,1.56-2-1.72-5.05-4a8.18,8.18,0,0,1-.86-.81q3.11,8.72,6.42,17.31.32.81.69,1.56c.09-.28.17-.57.26-.85a11.69,11.69,0,0,1,3.53-5.21l-.3-.39-1.21-1.54-3.45-19.49v.09C351.88,411.61,353.88,419.72,351.44,422.05Z"/><path class="cls-5" d="M340.83,401.67a2.6,2.6,0,0,0-.36.75q.88,2.68,1.78,5.36C341.58,404.71,340.83,401.67,340.83,401.67Z"/><path class="cls-5" d="M333,372.32c1.13.4,4.63,3.5,6,7.83,0,0,3.1,11.48,2.66,15.08,0,0,2.4-7.12,2.46-11.08.65.59,4.59,10.49,6.6,20.07l-6.86-38.77a43.45,43.45,0,0,0-8.43-8.7l-5.7,8.43q.87,3.46,1.77,6.91A4.54,4.54,0,0,1,333,372.32Z"/><path class="cls-5" d="M334.48,354.81a13.34,13.34,0,0,1-4.22-7l-3.47,5.09q1.38,6.16,2.91,12.26l5.7-8.43a43.45,43.45,0,0,1,8.43,8.7l6.86,38.77c.31,1.49.58,3,.78,4.41l3.45,19.49,1.21,1.54.3.39a11.69,11.69,0,0,0-3.53,5.21c-.09.28-.17.57-.26.85l.12.22,3.78.37-.24,4.36a27.38,27.38,0,0,0,3.69,3.06,64.32,64.32,0,0,1,1.64-6.85c1-3.21,9.68-2.81,1.93-12.75l-10.93-62.13c-.81-1.2-1.65-2.32-2.49-3.38l-1.6,0C342.44,358.92,337.7,357.52,334.48,354.81Zm-3.93-1Z"/><path class="cls-5" d="M331.91,345.41l-1.65,2.42a13.34,13.34,0,0,0,4.22,7c3.22,2.71,8,4.11,14.06,4.18l1.6,0C342.62,349.52,334.51,345.47,331.91,345.41Z"/><path class="cls-5" d="M341.63,395.23c.44-3.6-2.66-15.08-2.66-15.08-1.36-4.33-4.86-7.43-6-7.83a4.54,4.54,0,0,0-1.51-.23q4.08,15.35,9,30.33a2.6,2.6,0,0,1,.36-.75s.75,3,1.42,6.11q1.61,4.75,3.28,9.46a8.18,8.18,0,0,0,.86.81c3,2.28,3.43,5.56,5.05,4,2.44-2.33.44-10.44,0-13.33v-.09l-.78-4.41c-2-9.58-5.95-19.48-6.6-20.07C344,388.11,341.63,395.23,341.63,395.23Z"/><path class="cls-5" d="M350.69,404.22l.78,4.41C351.27,407.19,351,405.71,350.69,404.22Z"/><path class="cls-5" d="M356.54,436.7l-3.78-.37a19,19,0,0,0,3.54,4.73Z"/><polygon class="cls-3" points="106.74 133.56 34.7 150.68 34.7 574.79 106.74 591.91 106.74 133.56"/><polygon class="cls-1" points="330.13 160.17 314.21 96.21 266.17 89.12 254.12 73.53 245.7 35.46 192.45 9.24 257.61 27.17 264.5 47.27 277.55 76.41 326.39 77.08 366.93 161.51 330.13 160.17"/><polygon class="cls-1" points="383.61 151.65 458.06 69.05 509.12 65.7 515.39 20.5 551.94 3.36 520.38 23.61 517.49 72.65 461.84 81.16 405.41 168.68 383.61 151.65"/><ellipse class="cls-2" cx="536.11" cy="332.72" rx="16.46" ry="21.58"/></svg>